<?xml version="1.0" encoding="utf-8"?>
<svg xmlns="http://www.w3.org/2000/svg" xmlns:xlink="http://www.w3.org/1999/xlink" width="600" height="400" viewBox="0 0 2400 1600">
<defs>
  <clipPath id="clip540">
    <rect x="0" y="0" width="2400" height="1600"/>
  </clipPath>
</defs>
<path clip-path="url(#clip540)" d="M0 1600 L2400 1600 L2400 0 L0 0  Z" fill="#ffffff" fill-rule="evenodd" fill-opacity="1"/>
<defs>
  <clipPath id="clip541">
    <rect x="480" y="0" width="1681" height="1600"/>
  </clipPath>
</defs>
<path clip-path="url(#clip540)" d="M220.676 1423.18 L1145.45 1423.18 L1145.45 47.2441 L220.676 47.2441  Z" fill="#ffffff" fill-rule="evenodd" fill-opacity="1"/>
<defs>
  <clipPath id="clip542">
    <rect x="220" y="47" width="926" height="1377"/>
  </clipPath>
</defs>
<polyline clip-path="url(#clip542)" style="stroke:#000000; stroke-linecap:round; stroke-linejoin:round; stroke-width:2; stroke-opacity:0.1; fill:none" points="246.849,1423.18 246.849,47.2441 "/>
<polyline clip-path="url(#clip542)" style="stroke:#000000; stroke-linecap:round; stroke-linejoin:round; stroke-width:2; stroke-opacity:0.1; fill:none" points="334.092,1423.18 334.092,47.2441 "/>
<polyline clip-path="url(#clip542)" style="stroke:#000000; stroke-linecap:round; stroke-linejoin:round; stroke-width:2; stroke-opacity:0.1; fill:none" points="421.335,1423.18 421.335,47.2441 "/>
<polyline clip-path="url(#clip542)" style="stroke:#000000; stroke-linecap:round; stroke-linejoin:round; stroke-width:2; stroke-opacity:0.1; fill:none" points="508.578,1423.18 508.578,47.2441 "/>
<polyline clip-path="url(#clip542)" style="stroke:#000000; stroke-linecap:round; stroke-linejoin:round; stroke-width:2; stroke-opacity:0.1; fill:none" points="595.822,1423.18 595.822,47.2441 "/>
<polyline clip-path="url(#clip542)" style="stroke:#000000; stroke-linecap:round; stroke-linejoin:round; stroke-width:2; stroke-opacity:0.1; fill:none" points="683.065,1423.18 683.065,47.2441 "/>
<polyline clip-path="url(#clip542)" style="stroke:#000000; stroke-linecap:round; stroke-linejoin:round; stroke-width:2; stroke-opacity:0.1; fill:none" points="770.308,1423.18 770.308,47.2441 "/>
<polyline clip-path="url(#clip542)" style="stroke:#000000; stroke-linecap:round; stroke-linejoin:round; stroke-width:2; stroke-opacity:0.1; fill:none" points="857.551,1423.18 857.551,47.2441 "/>
<polyline clip-path="url(#clip542)" style="stroke:#000000; stroke-linecap:round; stroke-linejoin:round; stroke-width:2; stroke-opacity:0.1; fill:none" points="944.794,1423.18 944.794,47.2441 "/>
<polyline clip-path="url(#clip542)" style="stroke:#000000; stroke-linecap:round; stroke-linejoin:round; stroke-width:2; stroke-opacity:0.1; fill:none" points="1032.04,1423.18 1032.04,47.2441 "/>
<polyline clip-path="url(#clip542)" style="stroke:#000000; stroke-linecap:round; stroke-linejoin:round; stroke-width:2; stroke-opacity:0.1; fill:none" points="1119.28,1423.18 1119.28,47.2441 "/>
<polyline clip-path="url(#clip540)" style="stroke:#000000; stroke-linecap:round; stroke-linejoin:round; stroke-width:4; stroke-opacity:1; fill:none" points="220.676,1423.18 1145.45,1423.18 "/>
<polyline clip-path="url(#clip540)" style="stroke:#000000; stroke-linecap:round; stroke-linejoin:round; stroke-width:4; stroke-opacity:1; fill:none" points="246.849,1423.18 246.849,1404.28 "/>
<polyline clip-path="url(#clip540)" style="stroke:#000000; stroke-linecap:round; stroke-linejoin:round; stroke-width:4; stroke-opacity:1; fill:none" points="334.092,1423.18 334.092,1404.28 "/>
<polyline clip-path="url(#clip540)" style="stroke:#000000; stroke-linecap:round; stroke-linejoin:round; stroke-width:4; stroke-opacity:1; fill:none" points="421.335,1423.18 421.335,1404.28 "/>
<polyline clip-path="url(#clip540)" style="stroke:#000000; stroke-linecap:round; stroke-linejoin:round; stroke-width:4; stroke-opacity:1; fill:none" points="508.578,1423.18 508.578,1404.28 "/>
<polyline clip-path="url(#clip540)" style="stroke:#000000; stroke-linecap:round; stroke-linejoin:round; stroke-width:4; stroke-opacity:1; fill:none" points="595.822,1423.18 595.822,1404.28 "/>
<polyline clip-path="url(#clip540)" style="stroke:#000000; stroke-linecap:round; stroke-linejoin:round; stroke-width:4; stroke-opacity:1; fill:none" points="683.065,1423.18 683.065,1404.28 "/>
<polyline clip-path="url(#clip540)" style="stroke:#000000; stroke-linecap:round; stroke-linejoin:round; stroke-width:4; stroke-opacity:1; fill:none" points="770.308,1423.18 770.308,1404.28 "/>
<polyline clip-path="url(#clip540)" style="stroke:#000000; stroke-linecap:round; stroke-linejoin:round; stroke-width:4; stroke-opacity:1; fill:none" points="857.551,1423.18 857.551,1404.28 "/>
<polyline clip-path="url(#clip540)" style="stroke:#000000; stroke-linecap:round; stroke-linejoin:round; stroke-width:4; stroke-opacity:1; fill:none" points="944.794,1423.18 944.794,1404.28 "/>
<polyline clip-path="url(#clip540)" style="stroke:#000000; stroke-linecap:round; stroke-linejoin:round; stroke-width:4; stroke-opacity:1; fill:none" points="1032.04,1423.18 1032.04,1404.28 "/>
<polyline clip-path="url(#clip540)" style="stroke:#000000; stroke-linecap:round; stroke-linejoin:round; stroke-width:4; stroke-opacity:1; fill:none" points="1119.28,1423.18 1119.28,1404.28 "/>
<path clip-path="url(#clip540)" d="M246.849 1454.1 Q243.238 1454.1 241.41 1457.66 Q239.604 1461.2 239.604 1468.33 Q239.604 1475.44 241.41 1479.01 Q243.238 1482.55 246.849 1482.55 Q250.484 1482.55 252.289 1479.01 Q254.118 1475.44 254.118 1468.33 Q254.118 1461.2 252.289 1457.66 Q250.484 1454.1 246.849 1454.1 M246.849 1450.39 Q252.66 1450.39 255.715 1455 Q258.794 1459.58 258.794 1468.33 Q258.794 1477.06 255.715 1481.67 Q252.66 1486.25 246.849 1486.25 Q241.039 1486.25 237.961 1481.67 Q234.905 1477.06 234.905 1468.33 Q234.905 1459.58 237.961 1455 Q241.039 1450.39 246.849 1450.39 Z" fill="#000000" fill-rule="evenodd" fill-opacity="1" /><path clip-path="url(#clip540)" d="M324.474 1481.64 L332.113 1481.64 L332.113 1455.28 L323.803 1456.95 L323.803 1452.69 L332.067 1451.02 L336.743 1451.02 L336.743 1481.64 L344.382 1481.64 L344.382 1485.58 L324.474 1485.58 L324.474 1481.64 Z" fill="#000000" fill-rule="evenodd" fill-opacity="1" /><path clip-path="url(#clip540)" d="M415.988 1481.64 L432.308 1481.64 L432.308 1485.58 L410.363 1485.58 L410.363 1481.64 Q413.025 1478.89 417.609 1474.26 Q422.215 1469.61 423.396 1468.27 Q425.641 1465.74 426.521 1464.01 Q427.423 1462.25 427.423 1460.56 Q427.423 1457.8 425.479 1456.07 Q423.558 1454.33 420.456 1454.33 Q418.257 1454.33 415.803 1455.09 Q413.373 1455.86 410.595 1457.41 L410.595 1452.69 Q413.419 1451.55 415.873 1450.97 Q418.326 1450.39 420.363 1450.39 Q425.734 1450.39 428.928 1453.08 Q432.122 1455.77 432.122 1460.26 Q432.122 1462.39 431.312 1464.31 Q430.525 1466.2 428.419 1468.8 Q427.84 1469.47 424.738 1472.69 Q421.636 1475.88 415.988 1481.64 Z" fill="#000000" fill-rule="evenodd" fill-opacity="1" /><path clip-path="url(#clip540)" d="M512.826 1466.95 Q516.183 1467.66 518.058 1469.93 Q519.956 1472.2 519.956 1475.53 Q519.956 1480.65 516.437 1483.45 Q512.919 1486.25 506.437 1486.25 Q504.261 1486.25 501.947 1485.81 Q499.655 1485.39 497.201 1484.54 L497.201 1480.02 Q499.146 1481.16 501.46 1481.74 Q503.775 1482.32 506.298 1482.32 Q510.697 1482.32 512.988 1480.58 Q515.303 1478.84 515.303 1475.53 Q515.303 1472.48 513.15 1470.77 Q511.021 1469.03 507.201 1469.03 L503.173 1469.03 L503.173 1465.19 L507.386 1465.19 Q510.835 1465.19 512.664 1463.82 Q514.493 1462.43 514.493 1459.84 Q514.493 1457.18 512.595 1455.77 Q510.72 1454.33 507.201 1454.33 Q505.28 1454.33 503.081 1454.75 Q500.882 1455.16 498.243 1456.04 L498.243 1451.88 Q500.905 1451.14 503.22 1450.77 Q505.558 1450.39 507.618 1450.39 Q512.942 1450.39 516.044 1452.83 Q519.146 1455.23 519.146 1459.35 Q519.146 1462.22 517.502 1464.21 Q515.859 1466.18 512.826 1466.95 Z" fill="#000000" fill-rule="evenodd" fill-opacity="1" /><path clip-path="url(#clip540)" d="M598.831 1455.09 L587.025 1473.54 L598.831 1473.54 L598.831 1455.09 M597.604 1451.02 L603.484 1451.02 L603.484 1473.54 L608.414 1473.54 L608.414 1477.43 L603.484 1477.43 L603.484 1485.58 L598.831 1485.58 L598.831 1477.43 L583.229 1477.43 L583.229 1472.92 L597.604 1451.02 Z" fill="#000000" fill-rule="evenodd" fill-opacity="1" /><path clip-path="url(#clip540)" d="M673.342 1451.02 L691.699 1451.02 L691.699 1454.96 L677.625 1454.96 L677.625 1463.43 Q678.643 1463.08 679.662 1462.92 Q680.68 1462.73 681.699 1462.73 Q687.486 1462.73 690.865 1465.9 Q694.245 1469.08 694.245 1474.49 Q694.245 1480.07 690.773 1483.17 Q687.301 1486.25 680.981 1486.25 Q678.805 1486.25 676.537 1485.88 Q674.291 1485.51 671.884 1484.77 L671.884 1480.07 Q673.967 1481.2 676.19 1481.76 Q678.412 1482.32 680.889 1482.32 Q684.893 1482.32 687.231 1480.21 Q689.569 1478.1 689.569 1474.49 Q689.569 1470.88 687.231 1468.77 Q684.893 1466.67 680.889 1466.67 Q679.014 1466.67 677.139 1467.08 Q675.287 1467.5 673.342 1468.38 L673.342 1451.02 Z" fill="#000000" fill-rule="evenodd" fill-opacity="1" /><path clip-path="url(#clip540)" d="M770.713 1466.44 Q767.565 1466.44 765.713 1468.59 Q763.884 1470.74 763.884 1474.49 Q763.884 1478.22 765.713 1480.39 Q767.565 1482.55 770.713 1482.55 Q773.861 1482.55 775.69 1480.39 Q777.541 1478.22 777.541 1474.49 Q777.541 1470.74 775.69 1468.59 Q773.861 1466.44 770.713 1466.44 M779.995 1451.78 L779.995 1456.04 Q778.236 1455.21 776.43 1454.77 Q774.648 1454.33 772.889 1454.33 Q768.259 1454.33 765.805 1457.45 Q763.375 1460.58 763.028 1466.9 Q764.393 1464.89 766.453 1463.82 Q768.514 1462.73 770.99 1462.73 Q776.199 1462.73 779.208 1465.9 Q782.24 1469.05 782.24 1474.49 Q782.24 1479.82 779.092 1483.03 Q775.944 1486.25 770.713 1486.25 Q764.717 1486.25 761.546 1481.67 Q758.375 1477.06 758.375 1468.33 Q758.375 1460.14 762.264 1455.28 Q766.153 1450.39 772.703 1450.39 Q774.463 1450.39 776.245 1450.74 Q778.051 1451.09 779.995 1451.78 Z" fill="#000000" fill-rule="evenodd" fill-opacity="1" /><path clip-path="url(#clip540)" d="M846.44 1451.02 L868.662 1451.02 L868.662 1453.01 L856.115 1485.58 L851.231 1485.58 L863.037 1454.96 L846.44 1454.96 L846.44 1451.02 Z" fill="#000000" fill-rule="evenodd" fill-opacity="1" /><path clip-path="url(#clip540)" d="M944.794 1469.17 Q941.46 1469.17 939.539 1470.95 Q937.641 1472.73 937.641 1475.86 Q937.641 1478.98 939.539 1480.77 Q941.46 1482.55 944.794 1482.55 Q948.127 1482.55 950.048 1480.77 Q951.97 1478.96 951.97 1475.86 Q951.97 1472.73 950.048 1470.95 Q948.15 1469.17 944.794 1469.17 M940.118 1467.18 Q937.109 1466.44 935.419 1464.38 Q933.752 1462.32 933.752 1459.35 Q933.752 1455.21 936.692 1452.8 Q939.655 1450.39 944.794 1450.39 Q949.956 1450.39 952.896 1452.8 Q955.835 1455.21 955.835 1459.35 Q955.835 1462.32 954.146 1464.38 Q952.479 1466.44 949.493 1467.18 Q952.872 1467.96 954.747 1470.26 Q956.645 1472.55 956.645 1475.86 Q956.645 1480.88 953.567 1483.57 Q950.511 1486.25 944.794 1486.25 Q939.076 1486.25 935.997 1483.57 Q932.942 1480.88 932.942 1475.86 Q932.942 1472.55 934.84 1470.26 Q936.738 1467.96 940.118 1467.18 M938.405 1459.79 Q938.405 1462.48 940.072 1463.98 Q941.761 1465.49 944.794 1465.49 Q947.803 1465.49 949.493 1463.98 Q951.206 1462.48 951.206 1459.79 Q951.206 1457.11 949.493 1455.6 Q947.803 1454.1 944.794 1454.1 Q941.761 1454.1 940.072 1455.6 Q938.405 1457.11 938.405 1459.79 Z" fill="#000000" fill-rule="evenodd" fill-opacity="1" /><path clip-path="url(#clip540)" d="M1022.34 1484.86 L1022.34 1480.6 Q1024.1 1481.44 1025.9 1481.88 Q1027.71 1482.32 1029.44 1482.32 Q1034.07 1482.32 1036.5 1479.21 Q1038.96 1476.09 1039.31 1469.75 Q1037.96 1471.74 1035.9 1472.8 Q1033.84 1473.87 1031.34 1473.87 Q1026.16 1473.87 1023.12 1470.74 Q1020.12 1467.59 1020.12 1462.15 Q1020.12 1456.83 1023.26 1453.61 Q1026.41 1450.39 1031.64 1450.39 Q1037.64 1450.39 1040.79 1455 Q1043.96 1459.58 1043.96 1468.33 Q1043.96 1476.51 1040.07 1481.39 Q1036.2 1486.25 1029.65 1486.25 Q1027.89 1486.25 1026.09 1485.9 Q1024.28 1485.56 1022.34 1484.86 M1031.64 1470.21 Q1034.79 1470.21 1036.62 1468.06 Q1038.47 1465.9 1038.47 1462.15 Q1038.47 1458.43 1036.62 1456.27 Q1034.79 1454.1 1031.64 1454.1 Q1028.5 1454.1 1026.64 1456.27 Q1024.81 1458.43 1024.81 1462.15 Q1024.81 1465.9 1026.64 1468.06 Q1028.5 1470.21 1031.64 1470.21 Z" fill="#000000" fill-rule="evenodd" fill-opacity="1" /><path clip-path="url(#clip540)" d="M1093.97 1481.64 L1101.61 1481.64 L1101.61 1455.28 L1093.3 1456.95 L1093.3 1452.69 L1101.56 1451.02 L1106.24 1451.02 L1106.24 1481.64 L1113.87 1481.64 L1113.87 1485.58 L1093.97 1485.58 L1093.97 1481.64 Z" fill="#000000" fill-rule="evenodd" fill-opacity="1" /><path clip-path="url(#clip540)" d="M1133.32 1454.1 Q1129.71 1454.1 1127.88 1457.66 Q1126.07 1461.2 1126.07 1468.33 Q1126.07 1475.44 1127.88 1479.01 Q1129.71 1482.55 1133.32 1482.55 Q1136.95 1482.55 1138.76 1479.01 Q1140.59 1475.44 1140.59 1468.33 Q1140.59 1461.2 1138.76 1457.66 Q1136.95 1454.1 1133.32 1454.1 M1133.32 1450.39 Q1139.13 1450.39 1142.18 1455 Q1145.26 1459.58 1145.26 1468.33 Q1145.26 1477.06 1142.18 1481.67 Q1139.13 1486.25 1133.32 1486.25 Q1127.51 1486.25 1124.43 1481.67 Q1121.37 1477.06 1121.37 1468.33 Q1121.37 1459.58 1124.43 1455 Q1127.51 1450.39 1133.32 1450.39 Z" fill="#000000" fill-rule="evenodd" fill-opacity="1" /><path clip-path="url(#clip540)" d="M665.893 1581.6 L665.893 1532.4 L671.75 1532.4 L671.75 1554.55 Q671.75 1559.16 673.946 1561.52 Q676.142 1563.87 680.439 1563.87 Q685.149 1563.87 687.505 1561.2 Q689.892 1558.53 689.892 1553.18 L689.892 1532.4 L695.748 1532.4 L695.748 1559.83 Q695.748 1561.74 696.289 1562.66 Q696.862 1563.56 698.04 1563.56 Q698.326 1563.56 698.836 1563.4 Q699.345 1563.21 700.236 1562.82 L700.236 1567.53 Q698.931 1568.27 697.753 1568.62 Q696.608 1568.97 695.494 1568.97 Q693.297 1568.97 691.992 1567.73 Q690.688 1566.48 690.21 1563.94 Q688.619 1566.45 686.295 1567.73 Q684.004 1568.97 680.884 1568.97 Q677.638 1568.97 675.346 1567.73 Q673.086 1566.48 671.75 1564 L671.75 1581.6 L665.893 1581.6 Z" fill="#000000" fill-rule="evenodd" fill-opacity="1" /><polyline clip-path="url(#clip542)" style="stroke:#000000; stroke-linecap:round; stroke-linejoin:round; stroke-width:2; stroke-opacity:0.1; fill:none" points="220.676,1324 1145.45,1324 "/>
<polyline clip-path="url(#clip542)" style="stroke:#000000; stroke-linecap:round; stroke-linejoin:round; stroke-width:2; stroke-opacity:0.1; fill:none" points="220.676,1129.68 1145.45,1129.68 "/>
<polyline clip-path="url(#clip542)" style="stroke:#000000; stroke-linecap:round; stroke-linejoin:round; stroke-width:2; stroke-opacity:0.1; fill:none" points="220.676,935.361 1145.45,935.361 "/>
<polyline clip-path="url(#clip542)" style="stroke:#000000; stroke-linecap:round; stroke-linejoin:round; stroke-width:2; stroke-opacity:0.1; fill:none" points="220.676,741.042 1145.45,741.042 "/>
<polyline clip-path="url(#clip542)" style="stroke:#000000; stroke-linecap:round; stroke-linejoin:round; stroke-width:2; stroke-opacity:0.1; fill:none" points="220.676,546.722 1145.45,546.722 "/>
<polyline clip-path="url(#clip542)" style="stroke:#000000; stroke-linecap:round; stroke-linejoin:round; stroke-width:2; stroke-opacity:0.1; fill:none" points="220.676,352.403 1145.45,352.403 "/>
<polyline clip-path="url(#clip542)" style="stroke:#000000; stroke-linecap:round; stroke-linejoin:round; stroke-width:2; stroke-opacity:0.1; fill:none" points="220.676,158.084 1145.45,158.084 "/>
<polyline clip-path="url(#clip540)" style="stroke:#000000; stroke-linecap:round; stroke-linejoin:round; stroke-width:4; stroke-opacity:1; fill:none" points="220.676,1423.18 220.676,47.2441 "/>
<polyline clip-path="url(#clip540)" style="stroke:#000000; stroke-linecap:round; stroke-linejoin:round; stroke-width:4; stroke-opacity:1; fill:none" points="220.676,1324 239.574,1324 "/>
<polyline clip-path="url(#clip540)" style="stroke:#000000; stroke-linecap:round; stroke-linejoin:round; stroke-width:4; stroke-opacity:1; fill:none" points="220.676,1129.68 239.574,1129.68 "/>
<polyline clip-path="url(#clip540)" style="stroke:#000000; stroke-linecap:round; stroke-linejoin:round; stroke-width:4; stroke-opacity:1; fill:none" points="220.676,935.361 239.574,935.361 "/>
<polyline clip-path="url(#clip540)" style="stroke:#000000; stroke-linecap:round; stroke-linejoin:round; stroke-width:4; stroke-opacity:1; fill:none" points="220.676,741.042 239.574,741.042 "/>
<polyline clip-path="url(#clip540)" style="stroke:#000000; stroke-linecap:round; stroke-linejoin:round; stroke-width:4; stroke-opacity:1; fill:none" points="220.676,546.722 239.574,546.722 "/>
<polyline clip-path="url(#clip540)" style="stroke:#000000; stroke-linecap:round; stroke-linejoin:round; stroke-width:4; stroke-opacity:1; fill:none" points="220.676,352.403 239.574,352.403 "/>
<polyline clip-path="url(#clip540)" style="stroke:#000000; stroke-linecap:round; stroke-linejoin:round; stroke-width:4; stroke-opacity:1; fill:none" points="220.676,158.084 239.574,158.084 "/>
<path clip-path="url(#clip540)" d="M131.76 1322.65 Q135.117 1323.36 136.992 1325.63 Q138.89 1327.9 138.89 1331.23 Q138.89 1336.35 135.371 1339.15 Q131.853 1341.95 125.371 1341.95 Q123.195 1341.95 120.88 1341.51 Q118.589 1341.09 116.135 1340.24 L116.135 1335.72 Q118.08 1336.86 120.394 1337.44 Q122.709 1338.02 125.232 1338.02 Q129.63 1338.02 131.922 1336.28 Q134.237 1334.54 134.237 1331.23 Q134.237 1328.18 132.084 1326.46 Q129.955 1324.73 126.135 1324.73 L122.107 1324.73 L122.107 1320.89 L126.32 1320.89 Q129.769 1320.89 131.598 1319.52 Q133.427 1318.13 133.427 1315.54 Q133.427 1312.88 131.529 1311.46 Q129.654 1310.03 126.135 1310.03 Q124.214 1310.03 122.015 1310.45 Q119.816 1310.86 117.177 1311.74 L117.177 1307.58 Q119.839 1306.84 122.154 1306.46 Q124.492 1306.09 126.552 1306.09 Q131.876 1306.09 134.978 1308.52 Q138.079 1310.93 138.079 1315.05 Q138.079 1317.92 136.436 1319.91 Q134.792 1321.88 131.76 1322.65 Z" fill="#000000" fill-rule="evenodd" fill-opacity="1" /><path clip-path="url(#clip540)" d="M147.755 1335.4 L152.64 1335.4 L152.64 1341.28 L147.755 1341.28 L147.755 1335.4 Z" fill="#000000" fill-rule="evenodd" fill-opacity="1" /><path clip-path="url(#clip540)" d="M172.825 1324.87 Q169.491 1324.87 167.57 1326.65 Q165.672 1328.43 165.672 1331.56 Q165.672 1334.68 167.57 1336.46 Q169.491 1338.25 172.825 1338.25 Q176.158 1338.25 178.079 1336.46 Q180.001 1334.66 180.001 1331.56 Q180.001 1328.43 178.079 1326.65 Q176.181 1324.87 172.825 1324.87 M168.149 1322.88 Q165.14 1322.14 163.45 1320.08 Q161.783 1318.02 161.783 1315.05 Q161.783 1310.91 164.723 1308.5 Q167.686 1306.09 172.825 1306.09 Q177.987 1306.09 180.926 1308.5 Q183.866 1310.91 183.866 1315.05 Q183.866 1318.02 182.176 1320.08 Q180.51 1322.14 177.524 1322.88 Q180.903 1323.66 182.778 1325.96 Q184.676 1328.25 184.676 1331.56 Q184.676 1336.58 181.598 1339.27 Q178.542 1341.95 172.825 1341.95 Q167.107 1341.95 164.028 1339.27 Q160.973 1336.58 160.973 1331.56 Q160.973 1328.25 162.871 1325.96 Q164.769 1323.66 168.149 1322.88 M166.436 1315.49 Q166.436 1318.18 168.102 1319.68 Q169.792 1321.19 172.825 1321.19 Q175.834 1321.19 177.524 1319.68 Q179.237 1318.18 179.237 1315.49 Q179.237 1312.81 177.524 1311.3 Q175.834 1309.8 172.825 1309.8 Q169.792 1309.8 168.102 1311.3 Q166.436 1312.81 166.436 1315.49 Z" fill="#000000" fill-rule="evenodd" fill-opacity="1" /><path clip-path="url(#clip540)" d="M130.348 1116.47 L118.543 1134.92 L130.348 1134.92 L130.348 1116.47 M129.121 1112.4 L135.001 1112.4 L135.001 1134.92 L139.931 1134.92 L139.931 1138.81 L135.001 1138.81 L135.001 1146.96 L130.348 1146.96 L130.348 1138.81 L114.746 1138.81 L114.746 1134.3 L129.121 1112.4 Z" fill="#000000" fill-rule="evenodd" fill-opacity="1" /><path clip-path="url(#clip540)" d="M147.663 1141.08 L152.547 1141.08 L152.547 1146.96 L147.663 1146.96 L147.663 1141.08 Z" fill="#000000" fill-rule="evenodd" fill-opacity="1" /><path clip-path="url(#clip540)" d="M172.732 1115.48 Q169.121 1115.48 167.292 1119.04 Q165.487 1122.59 165.487 1129.71 Q165.487 1136.82 167.292 1140.39 Q169.121 1143.93 172.732 1143.93 Q176.366 1143.93 178.172 1140.39 Q180.001 1136.82 180.001 1129.71 Q180.001 1122.59 178.172 1119.04 Q176.366 1115.48 172.732 1115.48 M172.732 1111.78 Q178.542 1111.78 181.598 1116.38 Q184.676 1120.96 184.676 1129.71 Q184.676 1138.44 181.598 1143.05 Q178.542 1147.63 172.732 1147.63 Q166.922 1147.63 163.843 1143.05 Q160.788 1138.44 160.788 1129.71 Q160.788 1120.96 163.843 1116.38 Q166.922 1111.78 172.732 1111.78 Z" fill="#000000" fill-rule="evenodd" fill-opacity="1" /><path clip-path="url(#clip540)" d="M131.945 922.155 L120.14 940.604 L131.945 940.604 L131.945 922.155 M130.718 918.081 L136.598 918.081 L136.598 940.604 L141.529 940.604 L141.529 944.493 L136.598 944.493 L136.598 952.641 L131.945 952.641 L131.945 944.493 L116.343 944.493 L116.343 939.979 L130.718 918.081 Z" fill="#000000" fill-rule="evenodd" fill-opacity="1" /><path clip-path="url(#clip540)" d="M149.26 946.761 L154.144 946.761 L154.144 952.641 L149.26 952.641 L149.26 946.761 Z" fill="#000000" fill-rule="evenodd" fill-opacity="1" /><path clip-path="url(#clip540)" d="M168.357 948.706 L184.676 948.706 L184.676 952.641 L162.732 952.641 L162.732 948.706 Q165.394 945.951 169.977 941.321 Q174.584 936.669 175.764 935.326 Q178.01 932.803 178.889 931.067 Q179.792 929.308 179.792 927.618 Q179.792 924.863 177.848 923.127 Q175.926 921.391 172.825 921.391 Q170.626 921.391 168.172 922.155 Q165.741 922.919 162.964 924.47 L162.964 919.747 Q165.788 918.613 168.241 918.035 Q170.695 917.456 172.732 917.456 Q178.102 917.456 181.297 920.141 Q184.491 922.826 184.491 927.317 Q184.491 929.446 183.681 931.368 Q182.894 933.266 180.788 935.858 Q180.209 936.53 177.107 939.747 Q174.005 942.942 168.357 948.706 Z" fill="#000000" fill-rule="evenodd" fill-opacity="1" /><path clip-path="url(#clip540)" d="M129.862 727.836 L118.056 746.285 L129.862 746.285 L129.862 727.836 M128.635 723.762 L134.515 723.762 L134.515 746.285 L139.445 746.285 L139.445 750.173 L134.515 750.173 L134.515 758.322 L129.862 758.322 L129.862 750.173 L114.26 750.173 L114.26 745.66 L128.635 723.762 Z" fill="#000000" fill-rule="evenodd" fill-opacity="1" /><path clip-path="url(#clip540)" d="M147.177 752.442 L152.061 752.442 L152.061 758.322 L147.177 758.322 L147.177 752.442 Z" fill="#000000" fill-rule="evenodd" fill-opacity="1" /><path clip-path="url(#clip540)" d="M175.093 727.836 L163.288 746.285 L175.093 746.285 L175.093 727.836 M173.866 723.762 L179.746 723.762 L179.746 746.285 L184.676 746.285 L184.676 750.173 L179.746 750.173 L179.746 758.322 L175.093 758.322 L175.093 750.173 L159.491 750.173 L159.491 745.66 L173.866 723.762 Z" fill="#000000" fill-rule="evenodd" fill-opacity="1" /><path clip-path="url(#clip540)" d="M130.186 533.516 L118.381 551.965 L130.186 551.965 L130.186 533.516 M128.959 529.442 L134.839 529.442 L134.839 551.965 L139.769 551.965 L139.769 555.854 L134.839 555.854 L134.839 564.002 L130.186 564.002 L130.186 555.854 L114.584 555.854 L114.584 551.34 L128.959 529.442 Z" fill="#000000" fill-rule="evenodd" fill-opacity="1" /><path clip-path="url(#clip540)" d="M147.501 558.123 L152.385 558.123 L152.385 564.002 L147.501 564.002 L147.501 558.123 Z" fill="#000000" fill-rule="evenodd" fill-opacity="1" /><path clip-path="url(#clip540)" d="M173.149 544.859 Q170.001 544.859 168.149 547.012 Q166.32 549.164 166.32 552.914 Q166.32 556.641 168.149 558.817 Q170.001 560.97 173.149 560.97 Q176.297 560.97 178.126 558.817 Q179.977 556.641 179.977 552.914 Q179.977 549.164 178.126 547.012 Q176.297 544.859 173.149 544.859 M182.431 530.206 L182.431 534.465 Q180.672 533.632 178.866 533.192 Q177.084 532.752 175.325 532.752 Q170.695 532.752 168.241 535.877 Q165.811 539.002 165.464 545.322 Q166.829 543.308 168.889 542.243 Q170.95 541.155 173.427 541.155 Q178.635 541.155 181.644 544.326 Q184.676 547.475 184.676 552.914 Q184.676 558.238 181.528 561.456 Q178.38 564.674 173.149 564.674 Q167.153 564.674 163.982 560.09 Q160.811 555.484 160.811 546.757 Q160.811 538.563 164.7 533.702 Q168.589 528.817 175.139 528.817 Q176.899 528.817 178.681 529.165 Q180.487 529.512 182.431 530.206 Z" fill="#000000" fill-rule="evenodd" fill-opacity="1" /><path clip-path="url(#clip540)" d="M130.441 339.197 L118.635 357.646 L130.441 357.646 L130.441 339.197 M129.214 335.123 L135.093 335.123 L135.093 357.646 L140.024 357.646 L140.024 361.535 L135.093 361.535 L135.093 369.683 L130.441 369.683 L130.441 361.535 L114.839 361.535 L114.839 357.021 L129.214 335.123 Z" fill="#000000" fill-rule="evenodd" fill-opacity="1" /><path clip-path="url(#clip540)" d="M147.755 363.803 L152.64 363.803 L152.64 369.683 L147.755 369.683 L147.755 363.803 Z" fill="#000000" fill-rule="evenodd" fill-opacity="1" /><path clip-path="url(#clip540)" d="M172.825 353.271 Q169.491 353.271 167.57 355.053 Q165.672 356.836 165.672 359.961 Q165.672 363.086 167.57 364.868 Q169.491 366.651 172.825 366.651 Q176.158 366.651 178.079 364.868 Q180.001 363.063 180.001 359.961 Q180.001 356.836 178.079 355.053 Q176.181 353.271 172.825 353.271 M168.149 351.28 Q165.14 350.54 163.45 348.479 Q161.783 346.419 161.783 343.456 Q161.783 339.313 164.723 336.905 Q167.686 334.498 172.825 334.498 Q177.987 334.498 180.926 336.905 Q183.866 339.313 183.866 343.456 Q183.866 346.419 182.176 348.479 Q180.51 350.54 177.524 351.28 Q180.903 352.067 182.778 354.359 Q184.676 356.651 184.676 359.961 Q184.676 364.984 181.598 367.669 Q178.542 370.354 172.825 370.354 Q167.107 370.354 164.028 367.669 Q160.973 364.984 160.973 359.961 Q160.973 356.651 162.871 354.359 Q164.769 352.067 168.149 351.28 M166.436 343.896 Q166.436 346.581 168.102 348.086 Q169.792 349.591 172.825 349.591 Q175.834 349.591 177.524 348.086 Q179.237 346.581 179.237 343.896 Q179.237 341.211 177.524 339.706 Q175.834 338.202 172.825 338.202 Q169.792 338.202 168.102 339.706 Q166.436 341.211 166.436 343.896 Z" fill="#000000" fill-rule="evenodd" fill-opacity="1" /><path clip-path="url(#clip540)" d="M117.547 140.804 L135.904 140.804 L135.904 144.739 L121.83 144.739 L121.83 153.211 Q122.848 152.864 123.867 152.702 Q124.885 152.517 125.904 152.517 Q131.691 152.517 135.07 155.688 Q138.45 158.859 138.45 164.276 Q138.45 169.855 134.978 172.956 Q131.505 176.035 125.186 176.035 Q123.01 176.035 120.742 175.665 Q118.496 175.294 116.089 174.554 L116.089 169.855 Q118.172 170.989 120.394 171.544 Q122.617 172.1 125.093 172.1 Q129.098 172.1 131.436 169.993 Q133.774 167.887 133.774 164.276 Q133.774 160.665 131.436 158.558 Q129.098 156.452 125.093 156.452 Q123.218 156.452 121.343 156.869 Q119.492 157.285 117.547 158.165 L117.547 140.804 Z" fill="#000000" fill-rule="evenodd" fill-opacity="1" /><path clip-path="url(#clip540)" d="M147.663 169.484 L152.547 169.484 L152.547 175.364 L147.663 175.364 L147.663 169.484 Z" fill="#000000" fill-rule="evenodd" fill-opacity="1" /><path clip-path="url(#clip540)" d="M172.732 143.882 Q169.121 143.882 167.292 147.447 Q165.487 150.989 165.487 158.119 Q165.487 165.225 167.292 168.79 Q169.121 172.331 172.732 172.331 Q176.366 172.331 178.172 168.79 Q180.001 165.225 180.001 158.119 Q180.001 150.989 178.172 147.447 Q176.366 143.882 172.732 143.882 M172.732 140.179 Q178.542 140.179 181.598 144.785 Q184.676 149.369 184.676 158.119 Q184.676 166.845 181.598 171.452 Q178.542 176.035 172.732 176.035 Q166.922 176.035 163.843 171.452 Q160.788 166.845 160.788 158.119 Q160.788 149.369 163.843 144.785 Q166.922 140.179 172.732 140.179 Z" fill="#000000" fill-rule="evenodd" fill-opacity="1" /><path clip-path="url(#clip540)" d="M22.818 1121.71 L46.4666 1130.43 L46.4666 1112.95 L22.818 1121.71 M16.4842 1125.33 L16.4842 1118.05 L64.0042 1099.94 L64.0042 1106.62 L51.8138 1110.95 L51.8138 1132.37 L64.0042 1136.7 L64.0042 1143.48 L16.4842 1125.33 Z" fill="#000000" fill-rule="evenodd" fill-opacity="1" /><path clip-path="url(#clip540)" d="M28.3562 1101.27 L28.3562 1095.07 L58.275 1083.93 L28.3562 1072.79 L28.3562 1066.58 L64.0042 1079.95 L64.0042 1087.9 L28.3562 1101.27 Z" fill="#000000" fill-rule="evenodd" fill-opacity="1" /><path clip-path="url(#clip540)" d="M44.7161 1028 L47.5806 1028 L47.5806 1054.93 Q53.6281 1054.55 56.8109 1051.3 Q59.9619 1048.02 59.9619 1042.2 Q59.9619 1038.82 59.1344 1035.67 Q58.3069 1032.49 56.6518 1029.37 L62.1899 1029.37 Q63.5267 1032.52 64.227 1035.83 Q64.9272 1039.14 64.9272 1042.55 Q64.9272 1051.08 59.9619 1056.08 Q54.9967 1061.04 46.5303 1061.04 Q37.7774 1061.04 32.6531 1056.33 Q27.4968 1051.59 27.4968 1043.57 Q27.4968 1036.37 32.1438 1032.2 Q36.7589 1028 44.7161 1028 M42.9973 1033.86 Q38.1912 1033.92 35.3266 1036.56 Q32.4621 1039.17 32.4621 1043.5 Q32.4621 1048.4 35.2312 1051.36 Q38.0002 1054.29 43.0292 1054.74 L42.9973 1033.86 Z" fill="#000000" fill-rule="evenodd" fill-opacity="1" /><path clip-path="url(#clip540)" d="M33.8307 997.734 Q33.2578 998.72 33.0032 999.898 Q32.7167 1001.04 32.7167 1002.44 Q32.7167 1007.41 35.9632 1010.08 Q39.1779 1012.72 45.2253 1012.72 L64.0042 1012.72 L64.0042 1018.61 L28.3562 1018.61 L28.3562 1012.72 L33.8944 1012.72 Q30.6479 1010.88 29.0883 1007.92 Q27.4968 1004.96 27.4968 1000.73 Q27.4968 1000.12 27.5923 999.389 Q27.656 998.657 27.8151 997.766 L33.8307 997.734 Z" fill="#000000" fill-rule="evenodd" fill-opacity="1" /><path clip-path="url(#clip540)" d="M46.0847 975.39 Q46.0847 982.488 47.7079 985.225 Q49.3312 987.962 53.2461 987.962 Q56.3653 987.962 58.2114 985.925 Q60.0256 983.856 60.0256 980.324 Q60.0256 975.454 56.5881 972.526 Q53.1188 969.565 47.3897 969.565 L46.0847 969.565 L46.0847 975.39 M43.6657 963.709 L64.0042 963.709 L64.0042 969.565 L58.5933 969.565 Q61.8398 971.571 63.3994 974.563 Q64.9272 977.554 64.9272 981.883 Q64.9272 987.358 61.8716 990.604 Q58.7843 993.819 53.6281 993.819 Q47.6125 993.819 44.5569 989.808 Q41.5014 985.766 41.5014 977.777 L41.5014 969.565 L40.9285 969.565 Q36.8862 969.565 34.6901 972.239 Q32.4621 974.881 32.4621 979.687 Q32.4621 982.742 33.1941 985.639 Q33.9262 988.535 35.3903 991.209 L29.9795 991.209 Q28.7381 987.994 28.1334 984.97 Q27.4968 981.947 27.4968 979.082 Q27.4968 971.348 31.5072 967.528 Q35.5176 963.709 43.6657 963.709 Z" fill="#000000" fill-rule="evenodd" fill-opacity="1" /><path clip-path="url(#clip540)" d="M45.7664 928.188 Q39.4007 928.188 35.8996 930.83 Q32.3984 933.44 32.3984 938.183 Q32.3984 942.893 35.8996 945.535 Q39.4007 948.145 45.7664 948.145 Q52.1003 948.145 55.6014 945.535 Q59.1026 942.893 59.1026 938.183 Q59.1026 933.44 55.6014 930.83 Q52.1003 928.188 45.7664 928.188 M59.58 922.332 Q68.683 922.332 73.1071 926.374 Q77.5631 930.416 77.5631 938.755 Q77.5631 941.843 77.0857 944.58 Q76.6401 947.317 75.6852 949.895 L69.9879 949.895 Q71.3884 947.317 72.0568 944.803 Q72.7252 942.288 72.7252 939.678 Q72.7252 933.918 69.7015 931.053 Q66.7096 928.188 60.6303 928.188 L57.7339 928.188 Q60.885 930.003 62.4446 932.835 Q64.0042 935.668 64.0042 939.615 Q64.0042 946.171 59.0071 950.182 Q54.01 954.192 45.7664 954.192 Q37.491 954.192 32.4939 950.182 Q27.4968 946.171 27.4968 939.615 Q27.4968 935.668 29.0564 932.835 Q30.616 930.003 33.7671 928.188 L28.3562 928.188 L28.3562 922.332 L59.58 922.332 Z" fill="#000000" fill-rule="evenodd" fill-opacity="1" /><path clip-path="url(#clip540)" d="M44.7161 879.777 L47.5806 879.777 L47.5806 906.704 Q53.6281 906.322 56.8109 903.076 Q59.9619 899.797 59.9619 893.973 Q59.9619 890.599 59.1344 887.448 Q58.3069 884.265 56.6518 881.146 L62.1899 881.146 Q63.5267 884.297 64.227 887.607 Q64.9272 890.917 64.9272 894.323 Q64.9272 902.853 59.9619 907.85 Q54.9967 912.815 46.5303 912.815 Q37.7774 912.815 32.6531 908.105 Q27.4968 903.362 27.4968 895.341 Q27.4968 888.148 32.1438 883.979 Q36.7589 879.777 44.7161 879.777 M42.9973 885.634 Q38.1912 885.697 35.3266 888.339 Q32.4621 890.949 32.4621 895.278 Q32.4621 900.179 35.2312 903.139 Q38.0002 906.068 43.0292 906.513 L42.9973 885.634 Z" fill="#000000" fill-rule="evenodd" fill-opacity="1" /><path clip-path="url(#clip540)" d="M41.7242 826.655 Q42.4244 824.586 44.7161 822.645 Q47.0077 820.672 51.0181 818.698 L64.0042 812.173 L64.0042 819.08 L51.8138 825.159 Q47.0395 827.515 45.48 829.743 Q43.9204 831.939 43.9204 835.758 L43.9204 842.761 L64.0042 842.761 L64.0042 849.19 L16.4842 849.19 L16.4842 834.676 Q16.4842 826.528 19.8898 822.518 Q23.2955 818.507 30.1704 818.507 Q34.6582 818.507 37.6183 820.608 Q40.5784 822.677 41.7242 826.655 M21.7677 842.761 L38.6368 842.761 L38.6368 834.676 Q38.6368 830.029 36.5043 827.674 Q34.34 825.287 30.1704 825.287 Q26.0009 825.287 23.9002 827.674 Q21.7677 830.029 21.7677 834.676 L21.7677 842.761 Z" fill="#000000" fill-rule="evenodd" fill-opacity="1" /><path clip-path="url(#clip540)" d="M46.0847 789.384 Q46.0847 796.482 47.7079 799.219 Q49.3312 801.956 53.2461 801.956 Q56.3653 801.956 58.2114 799.919 Q60.0256 797.851 60.0256 794.318 Q60.0256 789.448 56.5881 786.52 Q53.1188 783.56 47.3897 783.56 L46.0847 783.56 L46.0847 789.384 M43.6657 777.703 L64.0042 777.703 L64.0042 783.56 L58.5933 783.56 Q61.8398 785.565 63.3994 788.557 Q64.9272 791.548 64.9272 795.877 Q64.9272 801.352 61.8716 804.598 Q58.7843 807.813 53.6281 807.813 Q47.6125 807.813 44.5569 803.802 Q41.5014 799.76 41.5014 791.771 L41.5014 783.56 L40.9285 783.56 Q36.8862 783.56 34.6901 786.233 Q32.4621 788.875 32.4621 793.681 Q32.4621 796.737 33.1941 799.633 Q33.9262 802.529 35.3903 805.203 L29.9795 805.203 Q28.7381 801.988 28.1334 798.965 Q27.4968 795.941 27.4968 793.076 Q27.4968 785.342 31.5072 781.522 Q35.5176 777.703 43.6657 777.703 Z" fill="#000000" fill-rule="evenodd" fill-opacity="1" /><path clip-path="url(#clip540)" d="M18.2347 759.847 L28.3562 759.847 L28.3562 747.784 L32.9077 747.784 L32.9077 759.847 L52.2594 759.847 Q56.6199 759.847 57.8613 758.67 Q59.1026 757.46 59.1026 753.8 L59.1026 747.784 L64.0042 747.784 L64.0042 753.8 Q64.0042 760.579 61.4897 763.157 Q58.9434 765.736 52.2594 765.736 L32.9077 765.736 L32.9077 770.032 L28.3562 770.032 L28.3562 765.736 L18.2347 765.736 L18.2347 759.847 Z" fill="#000000" fill-rule="evenodd" fill-opacity="1" /><path clip-path="url(#clip540)" d="M28.3562 740.082 L28.3562 734.225 L64.0042 734.225 L64.0042 740.082 L28.3562 740.082 M14.479 740.082 L14.479 734.225 L21.895 734.225 L21.895 740.082 L14.479 740.082 Z" fill="#000000" fill-rule="evenodd" fill-opacity="1" /><path clip-path="url(#clip540)" d="M42.4881 692.339 L64.0042 692.339 L64.0042 698.195 L42.679 698.195 Q37.6183 698.195 35.1038 700.169 Q32.5894 702.142 32.5894 706.089 Q32.5894 710.831 35.6131 713.569 Q38.6368 716.306 43.8567 716.306 L64.0042 716.306 L64.0042 722.194 L28.3562 722.194 L28.3562 716.306 L33.8944 716.306 Q30.6797 714.205 29.0883 711.372 Q27.4968 708.508 27.4968 704.784 Q27.4968 698.641 31.3163 695.49 Q35.1038 692.339 42.4881 692.339 Z" fill="#000000" fill-rule="evenodd" fill-opacity="1" /><path clip-path="url(#clip540)" d="M45.7664 657.2 Q39.4007 657.2 35.8996 659.842 Q32.3984 662.452 32.3984 667.194 Q32.3984 671.905 35.8996 674.547 Q39.4007 677.157 45.7664 677.157 Q52.1003 677.157 55.6014 674.547 Q59.1026 671.905 59.1026 667.194 Q59.1026 662.452 55.6014 659.842 Q52.1003 657.2 45.7664 657.2 M59.58 651.344 Q68.683 651.344 73.1071 655.386 Q77.5631 659.428 77.5631 667.767 Q77.5631 670.855 77.0857 673.592 Q76.6401 676.329 75.6852 678.907 L69.9879 678.907 Q71.3884 676.329 72.0568 673.815 Q72.7252 671.3 72.7252 668.69 Q72.7252 662.929 69.7015 660.065 Q66.7096 657.2 60.6303 657.2 L57.7339 657.2 Q60.885 659.014 62.4446 661.847 Q64.0042 664.68 64.0042 668.627 Q64.0042 675.183 59.0071 679.194 Q54.01 683.204 45.7664 683.204 Q37.491 683.204 32.4939 679.194 Q27.4968 675.183 27.4968 668.627 Q27.4968 664.68 29.0564 661.847 Q30.616 659.014 33.7671 657.2 L28.3562 657.2 L28.3562 651.344 L59.58 651.344 Z" fill="#000000" fill-rule="evenodd" fill-opacity="1" /><path clip-path="url(#clip540)" d="M14.5426 604.492 Q21.8632 608.757 29.0246 610.826 Q36.186 612.895 43.5384 612.895 Q50.8908 612.895 58.1159 610.826 Q65.3091 608.725 72.5979 604.492 L72.5979 609.585 Q65.1182 614.359 57.8931 616.746 Q50.668 619.101 43.5384 619.101 Q36.4406 619.101 29.2474 616.746 Q22.0542 614.391 14.5426 609.585 L14.5426 604.492 Z" fill="#000000" fill-rule="evenodd" fill-opacity="1" /><path clip-path="url(#clip540)" d="M32.4621 579.316 Q32.4621 584.026 36.1542 586.764 Q39.8145 589.501 46.212 589.501 Q52.6095 589.501 56.3017 586.796 Q59.9619 584.058 59.9619 579.316 Q59.9619 574.637 56.2698 571.9 Q52.5777 569.163 46.212 569.163 Q39.8781 569.163 36.186 571.9 Q32.4621 574.637 32.4621 579.316 M27.4968 579.316 Q27.4968 571.677 32.4621 567.316 Q37.4273 562.956 46.212 562.956 Q54.9649 562.956 59.9619 567.316 Q64.9272 571.677 64.9272 579.316 Q64.9272 586.986 59.9619 591.347 Q54.9649 595.676 46.212 595.676 Q37.4273 595.676 32.4621 591.347 Q27.4968 586.986 27.4968 579.316 Z" fill="#000000" fill-rule="evenodd" fill-opacity="1" /><path clip-path="url(#clip540)" d="M49.9359 553.853 L28.3562 553.853 L28.3562 547.997 L49.7131 547.997 Q54.7739 547.997 57.3202 546.023 Q59.8346 544.05 59.8346 540.103 Q59.8346 535.361 56.8109 532.623 Q53.7872 529.854 48.5673 529.854 L28.3562 529.854 L28.3562 523.998 L64.0042 523.998 L64.0042 529.854 L58.5296 529.854 Q61.7762 531.987 63.3676 534.82 Q64.9272 537.62 64.9272 541.344 Q64.9272 547.487 61.1078 550.67 Q57.2883 553.853 49.9359 553.853 M27.4968 539.116 L27.4968 539.116 Z" fill="#000000" fill-rule="evenodd" fill-opacity="1" /><path clip-path="url(#clip540)" d="M18.2347 506.142 L28.3562 506.142 L28.3562 494.079 L32.9077 494.079 L32.9077 506.142 L52.2594 506.142 Q56.6199 506.142 57.8613 504.964 Q59.1026 503.755 59.1026 500.095 L59.1026 494.079 L64.0042 494.079 L64.0042 500.095 Q64.0042 506.874 61.4897 509.452 Q58.9434 512.03 52.2594 512.03 L32.9077 512.03 L32.9077 516.327 L28.3562 516.327 L28.3562 512.03 L18.2347 512.03 L18.2347 506.142 Z" fill="#000000" fill-rule="evenodd" fill-opacity="1" /><path clip-path="url(#clip540)" d="M32.4621 451.843 Q32.4621 456.553 36.1542 459.29 Q39.8145 462.028 46.212 462.028 Q52.6095 462.028 56.3017 459.322 Q59.9619 456.585 59.9619 451.843 Q59.9619 447.164 56.2698 444.426 Q52.5777 441.689 46.212 441.689 Q39.8781 441.689 36.186 444.426 Q32.4621 447.164 32.4621 451.843 M27.4968 451.843 Q27.4968 444.204 32.4621 439.843 Q37.4273 435.483 46.212 435.483 Q54.9649 435.483 59.9619 439.843 Q64.9272 444.204 64.9272 451.843 Q64.9272 459.513 59.9619 463.874 Q54.9649 468.202 46.212 468.202 Q37.4273 468.202 32.4621 463.874 Q27.4968 459.513 27.4968 451.843 Z" fill="#000000" fill-rule="evenodd" fill-opacity="1" /><path clip-path="url(#clip540)" d="M14.479 407.728 L19.3487 407.728 L19.3487 413.33 Q19.3487 416.481 20.6219 417.722 Q21.895 418.932 25.2052 418.932 L28.3562 418.932 L28.3562 409.288 L32.9077 409.288 L32.9077 418.932 L64.0042 418.932 L64.0042 424.82 L32.9077 424.82 L32.9077 430.422 L28.3562 430.422 L28.3562 424.82 L25.8736 424.82 Q19.9216 424.82 17.2162 422.051 Q14.479 419.282 14.479 413.266 L14.479 407.728 Z" fill="#000000" fill-rule="evenodd" fill-opacity="1" /><path clip-path="url(#clip540)" d="M16.4842 382.902 L16.4842 352.347 L19.2214 352.347 L64.0042 369.598 L64.0042 376.313 L21.895 360.081 L21.895 382.902 L16.4842 382.902 Z" fill="#000000" fill-rule="evenodd" fill-opacity="1" /><path clip-path="url(#clip540)" d="M14.5426 341.557 L14.5426 336.464 Q22.0542 331.69 29.2474 329.335 Q36.4406 326.947 43.5384 326.947 Q50.668 326.947 57.8931 329.335 Q65.1182 331.69 72.5979 336.464 L72.5979 341.557 Q65.3091 337.323 58.1159 335.255 Q50.8908 333.154 43.5384 333.154 Q36.186 333.154 29.0246 335.255 Q21.8632 337.323 14.5426 341.557 Z" fill="#000000" fill-rule="evenodd" fill-opacity="1" /><polyline clip-path="url(#clip542)" style="stroke:#009af9; stroke-linecap:round; stroke-linejoin:round; stroke-width:4; stroke-opacity:1; fill:none" points="246.849,1384.24 255.574,1003.37 264.298,748.814 273.022,118.248 281.747,91.0437 290.471,135.737 299.195,86.1857 307.919,259.13 316.644,259.13 325.368,259.13 334.092,259.13 342.817,259.13 351.541,513.688 360.265,513.688 368.99,513.688 377.714,513.688 386.438,513.688 395.163,513.688 403.887,513.688 412.611,513.688 421.335,513.688 430.06,513.688 438.784,513.688 447.508,513.688 456.233,513.688 464.957,513.688 473.681,513.688 482.406,513.688 491.13,513.688 499.854,513.688 508.578,513.688 517.303,513.688 526.027,513.688 534.751,513.688 543.476,513.688 552.2,858.605 560.924,858.605 569.649,858.605 578.373,858.605 587.097,1035.44 595.822,1035.44 604.546,1035.44 613.27,1035.44 621.994,1035.44 630.719,1035.44 639.443,1035.44 648.167,1035.44 656.892,1035.44 665.616,1035.44 674.34,1035.44 683.065,1035.44 691.789,1035.44 700.513,1035.44 709.237,1035.44 717.962,1035.44 726.686,1035.44 735.41,1035.44 744.135,1035.44 752.859,1168.54 761.583,1168.54 770.308,1168.54 779.032,1168.54 787.756,1168.54 796.481,1168.54 805.205,1168.54 813.929,1168.54 822.653,1168.54 831.378,1168.54 840.102,1168.54 848.826,1168.54 857.551,1168.54 866.275,1168.54 874.999,1168.54 883.724,1168.54 892.448,1168.54 901.172,1168.54 909.896,1168.54 918.621,1168.54 927.345,1168.54 936.069,1168.54 944.794,1168.54 953.518,1168.54 962.242,1168.54 970.967,1168.54 979.691,1168.54 988.415,1168.54 997.14,1168.54 1005.86,1168.54 1014.59,1168.54 1023.31,1168.54 1032.04,1168.54 1040.76,1168.54 1049.49,1168.54 1058.21,1168.54 1066.93,1168.54 1075.66,1168.54 1084.38,1168.54 1093.11,1168.54 1101.83,1168.54 1110.56,1168.54 1119.28,1168.54 "/>
<path clip-path="url(#clip540)" d="M851.571 196.789 L1114.63 196.789 L1114.63 93.1086 L851.571 93.1086  Z" fill="#ffffff" fill-rule="evenodd" fill-opacity="1"/>
<polyline clip-path="url(#clip540)" style="stroke:#000000; stroke-linecap:round; stroke-linejoin:round; stroke-width:4; stroke-opacity:1; fill:none" points="851.571,196.789 1114.63,196.789 1114.63,93.1086 851.571,93.1086 851.571,196.789 "/>
<polyline clip-path="url(#clip540)" style="stroke:#009af9; stroke-linecap:round; stroke-linejoin:round; stroke-width:4; stroke-opacity:1; fill:none" points="861.847,144.949 923.498,144.949 "/>
<path clip-path="url(#clip540)" d="M950.163 146.025 Q951.667 146.534 953.079 148.201 Q954.514 149.868 955.95 152.784 L960.695 162.229 L955.672 162.229 L951.251 153.363 Q949.538 149.891 947.917 148.756 Q946.32 147.622 943.542 147.622 L938.45 147.622 L938.45 162.229 L933.774 162.229 L933.774 127.669 L944.329 127.669 Q950.255 127.669 953.172 130.145 Q956.088 132.622 956.088 137.622 Q956.088 140.886 954.561 143.039 Q953.056 145.192 950.163 146.025 M938.45 131.511 L938.45 143.78 L944.329 143.78 Q947.709 143.78 949.422 142.229 Q951.158 140.655 951.158 137.622 Q951.158 134.59 949.422 133.062 Q947.709 131.511 944.329 131.511 L938.45 131.511 Z" fill="#000000" fill-rule="evenodd" fill-opacity="1" /><path clip-path="url(#clip540)" d="M977.269 149.196 Q972.107 149.196 970.116 150.377 Q968.125 151.557 968.125 154.405 Q968.125 156.673 969.607 158.016 Q971.112 159.335 973.681 159.335 Q977.223 159.335 979.352 156.835 Q981.505 154.312 981.505 150.145 L981.505 149.196 L977.269 149.196 M985.764 147.437 L985.764 162.229 L981.505 162.229 L981.505 158.293 Q980.047 160.655 977.871 161.789 Q975.695 162.9 972.547 162.9 Q968.565 162.9 966.204 160.678 Q963.866 158.432 963.866 154.682 Q963.866 150.307 966.783 148.085 Q969.723 145.863 975.533 145.863 L981.505 145.863 L981.505 145.446 Q981.505 142.507 979.561 140.909 Q977.639 139.289 974.144 139.289 Q971.922 139.289 969.815 139.821 Q967.709 140.354 965.764 141.419 L965.764 137.483 Q968.102 136.581 970.301 136.141 Q972.5 135.678 974.584 135.678 Q980.209 135.678 982.986 138.594 Q985.764 141.511 985.764 147.437 Z" fill="#000000" fill-rule="evenodd" fill-opacity="1" /><path clip-path="url(#clip540)" d="M998.75 128.942 L998.75 136.303 L1007.52 136.303 L1007.52 139.613 L998.75 139.613 L998.75 153.687 Q998.75 156.858 999.607 157.761 Q1000.49 158.664 1003.15 158.664 L1007.52 158.664 L1007.52 162.229 L1003.15 162.229 Q998.218 162.229 996.343 160.4 Q994.468 158.548 994.468 153.687 L994.468 139.613 L991.343 139.613 L991.343 136.303 L994.468 136.303 L994.468 128.942 L998.75 128.942 Z" fill="#000000" fill-rule="evenodd" fill-opacity="1" /><path clip-path="url(#clip540)" d="M1013.13 136.303 L1017.38 136.303 L1017.38 162.229 L1013.13 162.229 L1013.13 136.303 M1013.13 126.21 L1017.38 126.21 L1017.38 131.604 L1013.13 131.604 L1013.13 126.21 Z" fill="#000000" fill-rule="evenodd" fill-opacity="1" /><path clip-path="url(#clip540)" d="M1047.85 146.581 L1047.85 162.229 L1043.59 162.229 L1043.59 146.719 Q1043.59 143.039 1042.15 141.21 Q1040.72 139.382 1037.85 139.382 Q1034.4 139.382 1032.41 141.581 Q1030.42 143.78 1030.42 147.576 L1030.42 162.229 L1026.13 162.229 L1026.13 136.303 L1030.42 136.303 L1030.42 140.331 Q1031.94 137.993 1034 136.835 Q1036.09 135.678 1038.8 135.678 Q1043.26 135.678 1045.56 138.456 Q1047.85 141.21 1047.85 146.581 Z" fill="#000000" fill-rule="evenodd" fill-opacity="1" /><path clip-path="url(#clip540)" d="M1073.4 148.965 Q1073.4 144.335 1071.48 141.789 Q1069.58 139.243 1066.13 139.243 Q1062.71 139.243 1060.79 141.789 Q1058.89 144.335 1058.89 148.965 Q1058.89 153.571 1060.79 156.118 Q1062.71 158.664 1066.13 158.664 Q1069.58 158.664 1071.48 156.118 Q1073.4 153.571 1073.4 148.965 M1077.66 159.011 Q1077.66 165.631 1074.72 168.849 Q1071.78 172.09 1065.72 172.09 Q1063.47 172.09 1061.48 171.742 Q1059.49 171.418 1057.62 170.724 L1057.62 166.58 Q1059.49 167.599 1061.32 168.085 Q1063.15 168.571 1065.05 168.571 Q1069.24 168.571 1071.32 166.372 Q1073.4 164.196 1073.4 159.775 L1073.4 157.668 Q1072.08 159.96 1070.02 161.094 Q1067.96 162.229 1065.09 162.229 Q1060.32 162.229 1057.41 158.594 Q1054.49 154.96 1054.49 148.965 Q1054.49 142.946 1057.41 139.312 Q1060.32 135.678 1065.09 135.678 Q1067.96 135.678 1070.02 136.812 Q1072.08 137.946 1073.4 140.238 L1073.4 136.303 L1077.66 136.303 L1077.66 159.011 Z" fill="#000000" fill-rule="evenodd" fill-opacity="1" /><path clip-path="url(#clip540)" d="M1102.96 137.067 L1102.96 141.094 Q1101.16 140.169 1099.21 139.706 Q1097.27 139.243 1095.18 139.243 Q1092.01 139.243 1090.42 140.215 Q1088.84 141.187 1088.84 143.131 Q1088.84 144.613 1089.98 145.469 Q1091.11 146.303 1094.54 147.067 L1096 147.391 Q1100.53 148.363 1102.43 150.145 Q1104.35 151.905 1104.35 155.076 Q1104.35 158.687 1101.48 160.793 Q1098.63 162.9 1093.63 162.9 Q1091.55 162.9 1089.28 162.483 Q1087.04 162.09 1084.54 161.28 L1084.54 156.881 Q1086.9 158.108 1089.19 158.733 Q1091.48 159.335 1093.73 159.335 Q1096.74 159.335 1098.36 158.317 Q1099.98 157.275 1099.98 155.4 Q1099.98 153.664 1098.8 152.738 Q1097.64 151.812 1093.68 150.956 L1092.2 150.608 Q1088.24 149.775 1086.48 148.062 Q1084.72 146.326 1084.72 143.317 Q1084.72 139.659 1087.31 137.669 Q1089.91 135.678 1094.68 135.678 Q1097.04 135.678 1099.12 136.025 Q1101.2 136.372 1102.96 137.067 Z" fill="#000000" fill-rule="evenodd" fill-opacity="1" /><path clip-path="url(#clip540)" d="M1427.98 1423.18 L2352.76 1423.18 L2352.76 47.2441 L1427.98 47.2441  Z" fill="#ffffff" fill-rule="evenodd" fill-opacity="1"/>
<defs>
  <clipPath id="clip543">
    <rect x="1427" y="47" width="926" height="1377"/>
  </clipPath>
</defs>
<polyline clip-path="url(#clip543)" style="stroke:#000000; stroke-linecap:round; stroke-linejoin:round; stroke-width:2; stroke-opacity:0.1; fill:none" points="1454.15,1423.18 1454.15,47.2441 "/>
<polyline clip-path="url(#clip543)" style="stroke:#000000; stroke-linecap:round; stroke-linejoin:round; stroke-width:2; stroke-opacity:0.1; fill:none" points="1541.4,1423.18 1541.4,47.2441 "/>
<polyline clip-path="url(#clip543)" style="stroke:#000000; stroke-linecap:round; stroke-linejoin:round; stroke-width:2; stroke-opacity:0.1; fill:none" points="1628.64,1423.18 1628.64,47.2441 "/>
<polyline clip-path="url(#clip543)" style="stroke:#000000; stroke-linecap:round; stroke-linejoin:round; stroke-width:2; stroke-opacity:0.1; fill:none" points="1715.88,1423.18 1715.88,47.2441 "/>
<polyline clip-path="url(#clip543)" style="stroke:#000000; stroke-linecap:round; stroke-linejoin:round; stroke-width:2; stroke-opacity:0.1; fill:none" points="1803.12,1423.18 1803.12,47.2441 "/>
<polyline clip-path="url(#clip543)" style="stroke:#000000; stroke-linecap:round; stroke-linejoin:round; stroke-width:2; stroke-opacity:0.1; fill:none" points="1890.37,1423.18 1890.37,47.2441 "/>
<polyline clip-path="url(#clip543)" style="stroke:#000000; stroke-linecap:round; stroke-linejoin:round; stroke-width:2; stroke-opacity:0.1; fill:none" points="1977.61,1423.18 1977.61,47.2441 "/>
<polyline clip-path="url(#clip543)" style="stroke:#000000; stroke-linecap:round; stroke-linejoin:round; stroke-width:2; stroke-opacity:0.1; fill:none" points="2064.85,1423.18 2064.85,47.2441 "/>
<polyline clip-path="url(#clip543)" style="stroke:#000000; stroke-linecap:round; stroke-linejoin:round; stroke-width:2; stroke-opacity:0.1; fill:none" points="2152.1,1423.18 2152.1,47.2441 "/>
<polyline clip-path="url(#clip543)" style="stroke:#000000; stroke-linecap:round; stroke-linejoin:round; stroke-width:2; stroke-opacity:0.1; fill:none" points="2239.34,1423.18 2239.34,47.2441 "/>
<polyline clip-path="url(#clip543)" style="stroke:#000000; stroke-linecap:round; stroke-linejoin:round; stroke-width:2; stroke-opacity:0.1; fill:none" points="2326.58,1423.18 2326.58,47.2441 "/>
<polyline clip-path="url(#clip540)" style="stroke:#000000; stroke-linecap:round; stroke-linejoin:round; stroke-width:4; stroke-opacity:1; fill:none" points="1427.98,1423.18 2352.76,1423.18 "/>
<polyline clip-path="url(#clip540)" style="stroke:#000000; stroke-linecap:round; stroke-linejoin:round; stroke-width:4; stroke-opacity:1; fill:none" points="1454.15,1423.18 1454.15,1404.28 "/>
<polyline clip-path="url(#clip540)" style="stroke:#000000; stroke-linecap:round; stroke-linejoin:round; stroke-width:4; stroke-opacity:1; fill:none" points="1541.4,1423.18 1541.4,1404.28 "/>
<polyline clip-path="url(#clip540)" style="stroke:#000000; stroke-linecap:round; stroke-linejoin:round; stroke-width:4; stroke-opacity:1; fill:none" points="1628.64,1423.18 1628.64,1404.28 "/>
<polyline clip-path="url(#clip540)" style="stroke:#000000; stroke-linecap:round; stroke-linejoin:round; stroke-width:4; stroke-opacity:1; fill:none" points="1715.88,1423.18 1715.88,1404.28 "/>
<polyline clip-path="url(#clip540)" style="stroke:#000000; stroke-linecap:round; stroke-linejoin:round; stroke-width:4; stroke-opacity:1; fill:none" points="1803.12,1423.18 1803.12,1404.28 "/>
<polyline clip-path="url(#clip540)" style="stroke:#000000; stroke-linecap:round; stroke-linejoin:round; stroke-width:4; stroke-opacity:1; fill:none" points="1890.37,1423.18 1890.37,1404.28 "/>
<polyline clip-path="url(#clip540)" style="stroke:#000000; stroke-linecap:round; stroke-linejoin:round; stroke-width:4; stroke-opacity:1; fill:none" points="1977.61,1423.18 1977.61,1404.28 "/>
<polyline clip-path="url(#clip540)" style="stroke:#000000; stroke-linecap:round; stroke-linejoin:round; stroke-width:4; stroke-opacity:1; fill:none" points="2064.85,1423.18 2064.85,1404.28 "/>
<polyline clip-path="url(#clip540)" style="stroke:#000000; stroke-linecap:round; stroke-linejoin:round; stroke-width:4; stroke-opacity:1; fill:none" points="2152.1,1423.18 2152.1,1404.28 "/>
<polyline clip-path="url(#clip540)" style="stroke:#000000; stroke-linecap:round; stroke-linejoin:round; stroke-width:4; stroke-opacity:1; fill:none" points="2239.34,1423.18 2239.34,1404.28 "/>
<polyline clip-path="url(#clip540)" style="stroke:#000000; stroke-linecap:round; stroke-linejoin:round; stroke-width:4; stroke-opacity:1; fill:none" points="2326.58,1423.18 2326.58,1404.28 "/>
<path clip-path="url(#clip540)" d="M1454.15 1454.1 Q1450.54 1454.1 1448.71 1457.66 Q1446.91 1461.2 1446.91 1468.33 Q1446.91 1475.44 1448.71 1479.01 Q1450.54 1482.55 1454.15 1482.55 Q1457.79 1482.55 1459.59 1479.01 Q1461.42 1475.44 1461.42 1468.33 Q1461.42 1461.2 1459.59 1457.66 Q1457.79 1454.1 1454.15 1454.1 M1454.15 1450.39 Q1459.96 1450.39 1463.02 1455 Q1466.1 1459.58 1466.1 1468.33 Q1466.1 1477.06 1463.02 1481.67 Q1459.96 1486.25 1454.15 1486.25 Q1448.34 1486.25 1445.26 1481.67 Q1442.21 1477.06 1442.21 1468.33 Q1442.21 1459.58 1445.26 1455 Q1448.34 1450.39 1454.15 1450.39 Z" fill="#000000" fill-rule="evenodd" fill-opacity="1" /><path clip-path="url(#clip540)" d="M1531.78 1481.64 L1539.42 1481.64 L1539.42 1455.28 L1531.11 1456.95 L1531.11 1452.69 L1539.37 1451.02 L1544.05 1451.02 L1544.05 1481.64 L1551.68 1481.64 L1551.68 1485.58 L1531.78 1485.58 L1531.78 1481.64 Z" fill="#000000" fill-rule="evenodd" fill-opacity="1" /><path clip-path="url(#clip540)" d="M1623.29 1481.64 L1639.61 1481.64 L1639.61 1485.58 L1617.67 1485.58 L1617.67 1481.64 Q1620.33 1478.89 1624.91 1474.26 Q1629.52 1469.61 1630.7 1468.27 Q1632.94 1465.74 1633.82 1464.01 Q1634.73 1462.25 1634.73 1460.56 Q1634.73 1457.8 1632.78 1456.07 Q1630.86 1454.33 1627.76 1454.33 Q1625.56 1454.33 1623.11 1455.09 Q1620.68 1455.86 1617.9 1457.41 L1617.9 1452.69 Q1620.72 1451.55 1623.18 1450.97 Q1625.63 1450.39 1627.67 1450.39 Q1633.04 1450.39 1636.23 1453.08 Q1639.43 1455.77 1639.43 1460.26 Q1639.43 1462.39 1638.62 1464.31 Q1637.83 1466.2 1635.72 1468.8 Q1635.14 1469.47 1632.04 1472.69 Q1628.94 1475.88 1623.29 1481.64 Z" fill="#000000" fill-rule="evenodd" fill-opacity="1" /><path clip-path="url(#clip540)" d="M1720.13 1466.95 Q1723.49 1467.66 1725.36 1469.93 Q1727.26 1472.2 1727.26 1475.53 Q1727.26 1480.65 1723.74 1483.45 Q1720.22 1486.25 1713.74 1486.25 Q1711.56 1486.25 1709.25 1485.81 Q1706.96 1485.39 1704.5 1484.54 L1704.5 1480.02 Q1706.45 1481.16 1708.76 1481.74 Q1711.08 1482.32 1713.6 1482.32 Q1718 1482.32 1720.29 1480.58 Q1722.61 1478.84 1722.61 1475.53 Q1722.61 1472.48 1720.45 1470.77 Q1718.32 1469.03 1714.5 1469.03 L1710.48 1469.03 L1710.48 1465.19 L1714.69 1465.19 Q1718.14 1465.19 1719.97 1463.82 Q1721.8 1462.43 1721.8 1459.84 Q1721.8 1457.18 1719.9 1455.77 Q1718.02 1454.33 1714.5 1454.33 Q1712.58 1454.33 1710.38 1454.75 Q1708.18 1455.16 1705.55 1456.04 L1705.55 1451.88 Q1708.21 1451.14 1710.52 1450.77 Q1712.86 1450.39 1714.92 1450.39 Q1720.25 1450.39 1723.35 1452.83 Q1726.45 1455.23 1726.45 1459.35 Q1726.45 1462.22 1724.81 1464.21 Q1723.16 1466.18 1720.13 1466.95 Z" fill="#000000" fill-rule="evenodd" fill-opacity="1" /><path clip-path="url(#clip540)" d="M1806.13 1455.09 L1794.33 1473.54 L1806.13 1473.54 L1806.13 1455.09 M1804.91 1451.02 L1810.79 1451.02 L1810.79 1473.54 L1815.72 1473.54 L1815.72 1477.43 L1810.79 1477.43 L1810.79 1485.58 L1806.13 1485.58 L1806.13 1477.43 L1790.53 1477.43 L1790.53 1472.92 L1804.91 1451.02 Z" fill="#000000" fill-rule="evenodd" fill-opacity="1" /><path clip-path="url(#clip540)" d="M1880.65 1451.02 L1899 1451.02 L1899 1454.96 L1884.93 1454.96 L1884.93 1463.43 Q1885.95 1463.08 1886.97 1462.92 Q1887.98 1462.73 1889 1462.73 Q1894.79 1462.73 1898.17 1465.9 Q1901.55 1469.08 1901.55 1474.49 Q1901.55 1480.07 1898.08 1483.17 Q1894.6 1486.25 1888.28 1486.25 Q1886.11 1486.25 1883.84 1485.88 Q1881.59 1485.51 1879.19 1484.77 L1879.19 1480.07 Q1881.27 1481.2 1883.49 1481.76 Q1885.72 1482.32 1888.19 1482.32 Q1892.2 1482.32 1894.53 1480.21 Q1896.87 1478.1 1896.87 1474.49 Q1896.87 1470.88 1894.53 1468.77 Q1892.2 1466.67 1888.19 1466.67 Q1886.32 1466.67 1884.44 1467.08 Q1882.59 1467.5 1880.65 1468.38 L1880.65 1451.02 Z" fill="#000000" fill-rule="evenodd" fill-opacity="1" /><path clip-path="url(#clip540)" d="M1978.02 1466.44 Q1974.87 1466.44 1973.02 1468.59 Q1971.19 1470.74 1971.19 1474.49 Q1971.19 1478.22 1973.02 1480.39 Q1974.87 1482.55 1978.02 1482.55 Q1981.16 1482.55 1982.99 1480.39 Q1984.84 1478.22 1984.84 1474.49 Q1984.84 1470.74 1982.99 1468.59 Q1981.16 1466.44 1978.02 1466.44 M1987.3 1451.78 L1987.3 1456.04 Q1985.54 1455.21 1983.73 1454.77 Q1981.95 1454.33 1980.19 1454.33 Q1975.56 1454.33 1973.11 1457.45 Q1970.68 1460.58 1970.33 1466.9 Q1971.7 1464.89 1973.76 1463.82 Q1975.82 1462.73 1978.29 1462.73 Q1983.5 1462.73 1986.51 1465.9 Q1989.54 1469.05 1989.54 1474.49 Q1989.54 1479.82 1986.4 1483.03 Q1983.25 1486.25 1978.02 1486.25 Q1972.02 1486.25 1968.85 1481.67 Q1965.68 1477.06 1965.68 1468.33 Q1965.68 1460.14 1969.57 1455.28 Q1973.46 1450.39 1980.01 1450.39 Q1981.77 1450.39 1983.55 1450.74 Q1985.35 1451.09 1987.3 1451.78 Z" fill="#000000" fill-rule="evenodd" fill-opacity="1" /><path clip-path="url(#clip540)" d="M2053.74 1451.02 L2075.96 1451.02 L2075.96 1453.01 L2063.42 1485.58 L2058.53 1485.58 L2070.34 1454.96 L2053.74 1454.96 L2053.74 1451.02 Z" fill="#000000" fill-rule="evenodd" fill-opacity="1" /><path clip-path="url(#clip540)" d="M2152.1 1469.17 Q2148.76 1469.17 2146.84 1470.95 Q2144.94 1472.73 2144.94 1475.86 Q2144.94 1478.98 2146.84 1480.77 Q2148.76 1482.55 2152.1 1482.55 Q2155.43 1482.55 2157.35 1480.77 Q2159.27 1478.96 2159.27 1475.86 Q2159.27 1472.73 2157.35 1470.95 Q2155.45 1469.17 2152.1 1469.17 M2147.42 1467.18 Q2144.41 1466.44 2142.72 1464.38 Q2141.06 1462.32 2141.06 1459.35 Q2141.06 1455.21 2144 1452.8 Q2146.96 1450.39 2152.1 1450.39 Q2157.26 1450.39 2160.2 1452.8 Q2163.14 1455.21 2163.14 1459.35 Q2163.14 1462.32 2161.45 1464.38 Q2159.78 1466.44 2156.8 1467.18 Q2160.18 1467.96 2162.05 1470.26 Q2163.95 1472.55 2163.95 1475.86 Q2163.95 1480.88 2160.87 1483.57 Q2157.81 1486.25 2152.1 1486.25 Q2146.38 1486.25 2143.3 1483.57 Q2140.25 1480.88 2140.25 1475.86 Q2140.25 1472.55 2142.14 1470.26 Q2144.04 1467.96 2147.42 1467.18 M2145.71 1459.79 Q2145.71 1462.48 2147.37 1463.98 Q2149.06 1465.49 2152.1 1465.49 Q2155.11 1465.49 2156.8 1463.98 Q2158.51 1462.48 2158.51 1459.79 Q2158.51 1457.11 2156.8 1455.6 Q2155.11 1454.1 2152.1 1454.1 Q2149.06 1454.1 2147.37 1455.6 Q2145.71 1457.11 2145.71 1459.79 Z" fill="#000000" fill-rule="evenodd" fill-opacity="1" /><path clip-path="url(#clip540)" d="M2229.64 1484.86 L2229.64 1480.6 Q2231.4 1481.44 2233.21 1481.88 Q2235.01 1482.32 2236.75 1482.32 Q2241.38 1482.32 2243.81 1479.21 Q2246.26 1476.09 2246.61 1469.75 Q2245.27 1471.74 2243.21 1472.8 Q2241.15 1473.87 2238.65 1473.87 Q2233.46 1473.87 2230.43 1470.74 Q2227.42 1467.59 2227.42 1462.15 Q2227.42 1456.83 2230.57 1453.61 Q2233.71 1450.39 2238.95 1450.39 Q2244.94 1450.39 2248.09 1455 Q2251.26 1459.58 2251.26 1468.33 Q2251.26 1476.51 2247.37 1481.39 Q2243.51 1486.25 2236.96 1486.25 Q2235.2 1486.25 2233.39 1485.9 Q2231.59 1485.56 2229.64 1484.86 M2238.95 1470.21 Q2242.09 1470.21 2243.92 1468.06 Q2245.78 1465.9 2245.78 1462.15 Q2245.78 1458.43 2243.92 1456.27 Q2242.09 1454.1 2238.95 1454.1 Q2235.8 1454.1 2233.95 1456.27 Q2232.12 1458.43 2232.12 1462.15 Q2232.12 1465.9 2233.95 1468.06 Q2235.8 1470.21 2238.95 1470.21 Z" fill="#000000" fill-rule="evenodd" fill-opacity="1" /><path clip-path="url(#clip540)" d="M2301.27 1481.64 L2308.91 1481.64 L2308.91 1455.28 L2300.6 1456.95 L2300.6 1452.69 L2308.86 1451.02 L2313.54 1451.02 L2313.54 1481.64 L2321.18 1481.64 L2321.18 1485.58 L2301.27 1485.58 L2301.27 1481.64 Z" fill="#000000" fill-rule="evenodd" fill-opacity="1" /><path clip-path="url(#clip540)" d="M2340.62 1454.1 Q2337.01 1454.1 2335.18 1457.66 Q2333.38 1461.2 2333.38 1468.33 Q2333.38 1475.44 2335.18 1479.01 Q2337.01 1482.55 2340.62 1482.55 Q2344.26 1482.55 2346.06 1479.01 Q2347.89 1475.44 2347.89 1468.33 Q2347.89 1461.2 2346.06 1457.66 Q2344.26 1454.1 2340.62 1454.1 M2340.62 1450.39 Q2346.43 1450.39 2349.49 1455 Q2352.57 1459.58 2352.57 1468.33 Q2352.57 1477.06 2349.49 1481.67 Q2346.43 1486.25 2340.62 1486.25 Q2334.81 1486.25 2331.73 1481.67 Q2328.68 1477.06 2328.68 1468.33 Q2328.68 1459.58 2331.73 1455 Q2334.81 1450.39 2340.62 1450.39 Z" fill="#000000" fill-rule="evenodd" fill-opacity="1" /><path clip-path="url(#clip540)" d="M1873.2 1581.6 L1873.2 1532.4 L1879.05 1532.4 L1879.05 1554.55 Q1879.05 1559.16 1881.25 1561.52 Q1883.45 1563.87 1887.74 1563.87 Q1892.45 1563.87 1894.81 1561.2 Q1897.19 1558.53 1897.19 1553.18 L1897.19 1532.4 L1903.05 1532.4 L1903.05 1559.83 Q1903.05 1561.74 1903.59 1562.66 Q1904.17 1563.56 1905.34 1563.56 Q1905.63 1563.56 1906.14 1563.4 Q1906.65 1563.21 1907.54 1562.82 L1907.54 1567.53 Q1906.23 1568.27 1905.06 1568.62 Q1903.91 1568.97 1902.8 1568.97 Q1900.6 1568.97 1899.3 1567.73 Q1897.99 1566.48 1897.51 1563.94 Q1895.92 1566.45 1893.6 1567.73 Q1891.31 1568.97 1888.19 1568.97 Q1884.94 1568.97 1882.65 1567.73 Q1880.39 1566.48 1879.05 1564 L1879.05 1581.6 L1873.2 1581.6 Z" fill="#000000" fill-rule="evenodd" fill-opacity="1" /><polyline clip-path="url(#clip543)" style="stroke:#000000; stroke-linecap:round; stroke-linejoin:round; stroke-width:2; stroke-opacity:0.1; fill:none" points="1427.98,1320.34 2352.76,1320.34 "/>
<polyline clip-path="url(#clip543)" style="stroke:#000000; stroke-linecap:round; stroke-linejoin:round; stroke-width:2; stroke-opacity:0.1; fill:none" points="1427.98,1032.53 2352.76,1032.53 "/>
<polyline clip-path="url(#clip543)" style="stroke:#000000; stroke-linecap:round; stroke-linejoin:round; stroke-width:2; stroke-opacity:0.1; fill:none" points="1427.98,744.71 2352.76,744.71 "/>
<polyline clip-path="url(#clip543)" style="stroke:#000000; stroke-linecap:round; stroke-linejoin:round; stroke-width:2; stroke-opacity:0.1; fill:none" points="1427.98,456.893 2352.76,456.893 "/>
<polyline clip-path="url(#clip543)" style="stroke:#000000; stroke-linecap:round; stroke-linejoin:round; stroke-width:2; stroke-opacity:0.1; fill:none" points="1427.98,169.077 2352.76,169.077 "/>
<polyline clip-path="url(#clip540)" style="stroke:#000000; stroke-linecap:round; stroke-linejoin:round; stroke-width:4; stroke-opacity:1; fill:none" points="1427.98,1423.18 1427.98,47.2441 "/>
<polyline clip-path="url(#clip540)" style="stroke:#000000; stroke-linecap:round; stroke-linejoin:round; stroke-width:4; stroke-opacity:1; fill:none" points="1427.98,1320.34 1446.88,1320.34 "/>
<polyline clip-path="url(#clip540)" style="stroke:#000000; stroke-linecap:round; stroke-linejoin:round; stroke-width:4; stroke-opacity:1; fill:none" points="1427.98,1032.53 1446.88,1032.53 "/>
<polyline clip-path="url(#clip540)" style="stroke:#000000; stroke-linecap:round; stroke-linejoin:round; stroke-width:4; stroke-opacity:1; fill:none" points="1427.98,744.71 1446.88,744.71 "/>
<polyline clip-path="url(#clip540)" style="stroke:#000000; stroke-linecap:round; stroke-linejoin:round; stroke-width:4; stroke-opacity:1; fill:none" points="1427.98,456.893 1446.88,456.893 "/>
<polyline clip-path="url(#clip540)" style="stroke:#000000; stroke-linecap:round; stroke-linejoin:round; stroke-width:4; stroke-opacity:1; fill:none" points="1427.98,169.077 1446.88,169.077 "/>
<path clip-path="url(#clip540)" d="M1313.74 1333.69 L1330.06 1333.69 L1330.06 1337.62 L1308.11 1337.62 L1308.11 1333.69 Q1310.78 1330.93 1315.36 1326.3 Q1319.97 1321.65 1321.15 1320.31 Q1323.39 1317.79 1324.27 1316.05 Q1325.17 1314.29 1325.17 1312.6 Q1325.17 1309.85 1323.23 1308.11 Q1321.31 1306.37 1318.21 1306.37 Q1316.01 1306.37 1313.55 1307.14 Q1311.12 1307.9 1308.35 1309.45 L1308.35 1304.73 Q1311.17 1303.6 1313.62 1303.02 Q1316.08 1302.44 1318.11 1302.44 Q1323.48 1302.44 1326.68 1305.12 Q1329.87 1307.81 1329.87 1312.3 Q1329.87 1314.43 1329.06 1316.35 Q1328.28 1318.25 1326.17 1320.84 Q1325.59 1321.51 1322.49 1324.73 Q1319.39 1327.92 1313.74 1333.69 Z" fill="#000000" fill-rule="evenodd" fill-opacity="1" /><path clip-path="url(#clip540)" d="M1349.87 1306.14 Q1346.26 1306.14 1344.43 1309.71 Q1342.63 1313.25 1342.63 1320.38 Q1342.63 1327.48 1344.43 1331.05 Q1346.26 1334.59 1349.87 1334.59 Q1353.51 1334.59 1355.31 1331.05 Q1357.14 1327.48 1357.14 1320.38 Q1357.14 1313.25 1355.31 1309.71 Q1353.51 1306.14 1349.87 1306.14 M1349.87 1302.44 Q1355.68 1302.44 1358.74 1307.04 Q1361.82 1311.63 1361.82 1320.38 Q1361.82 1329.1 1358.74 1333.71 Q1355.68 1338.29 1349.87 1338.29 Q1344.06 1338.29 1340.98 1333.71 Q1337.93 1329.1 1337.93 1320.38 Q1337.93 1311.63 1340.98 1307.04 Q1344.06 1302.44 1349.87 1302.44 Z" fill="#000000" fill-rule="evenodd" fill-opacity="1" /><path clip-path="url(#clip540)" d="M1380.04 1306.14 Q1376.42 1306.14 1374.6 1309.71 Q1372.79 1313.25 1372.79 1320.38 Q1372.79 1327.48 1374.6 1331.05 Q1376.42 1334.59 1380.04 1334.59 Q1383.67 1334.59 1385.48 1331.05 Q1387.3 1327.48 1387.3 1320.38 Q1387.3 1313.25 1385.48 1309.71 Q1383.67 1306.14 1380.04 1306.14 M1380.04 1302.44 Q1385.85 1302.44 1388.9 1307.04 Q1391.98 1311.63 1391.98 1320.38 Q1391.98 1329.1 1388.9 1333.71 Q1385.85 1338.29 1380.04 1338.29 Q1374.23 1338.29 1371.15 1333.71 Q1368.09 1329.1 1368.09 1320.38 Q1368.09 1311.63 1371.15 1307.04 Q1374.23 1302.44 1380.04 1302.44 Z" fill="#000000" fill-rule="evenodd" fill-opacity="1" /><path clip-path="url(#clip540)" d="M1313.74 1045.87 L1330.06 1045.87 L1330.06 1049.81 L1308.11 1049.81 L1308.11 1045.87 Q1310.78 1043.12 1315.36 1038.49 Q1319.97 1033.83 1321.15 1032.49 Q1323.39 1029.97 1324.27 1028.23 Q1325.17 1026.47 1325.17 1024.78 Q1325.17 1022.03 1323.23 1020.29 Q1321.31 1018.56 1318.21 1018.56 Q1316.01 1018.56 1313.55 1019.32 Q1311.12 1020.08 1308.35 1021.64 L1308.35 1016.91 Q1311.17 1015.78 1313.62 1015.2 Q1316.08 1014.62 1318.11 1014.62 Q1323.48 1014.62 1326.68 1017.31 Q1329.87 1019.99 1329.87 1024.48 Q1329.87 1026.61 1329.06 1028.53 Q1328.28 1030.43 1326.17 1033.02 Q1325.59 1033.7 1322.49 1036.91 Q1319.39 1040.11 1313.74 1045.87 Z" fill="#000000" fill-rule="evenodd" fill-opacity="1" /><path clip-path="url(#clip540)" d="M1339.92 1015.25 L1358.28 1015.25 L1358.28 1019.18 L1344.2 1019.18 L1344.2 1027.65 Q1345.22 1027.31 1346.24 1027.14 Q1347.26 1026.96 1348.28 1026.96 Q1354.06 1026.96 1357.44 1030.13 Q1360.82 1033.3 1360.82 1038.72 Q1360.82 1044.3 1357.35 1047.4 Q1353.88 1050.48 1347.56 1050.48 Q1345.38 1050.48 1343.11 1050.11 Q1340.87 1049.74 1338.46 1049 L1338.46 1044.3 Q1340.54 1045.43 1342.77 1045.99 Q1344.99 1046.54 1347.47 1046.54 Q1351.47 1046.54 1353.81 1044.44 Q1356.15 1042.33 1356.15 1038.72 Q1356.15 1035.11 1353.81 1033 Q1351.47 1030.89 1347.47 1030.89 Q1345.59 1030.89 1343.72 1031.31 Q1341.86 1031.73 1339.92 1032.61 L1339.92 1015.25 Z" fill="#000000" fill-rule="evenodd" fill-opacity="1" /><path clip-path="url(#clip540)" d="M1380.04 1018.33 Q1376.42 1018.33 1374.6 1021.89 Q1372.79 1025.43 1372.79 1032.56 Q1372.79 1039.67 1374.6 1043.23 Q1376.42 1046.77 1380.04 1046.77 Q1383.67 1046.77 1385.48 1043.23 Q1387.3 1039.67 1387.3 1032.56 Q1387.3 1025.43 1385.48 1021.89 Q1383.67 1018.33 1380.04 1018.33 M1380.04 1014.62 Q1385.85 1014.62 1388.9 1019.23 Q1391.98 1023.81 1391.98 1032.56 Q1391.98 1041.29 1388.9 1045.89 Q1385.85 1050.48 1380.04 1050.48 Q1374.23 1050.48 1371.15 1045.89 Q1368.09 1041.29 1368.09 1032.56 Q1368.09 1023.81 1371.15 1019.23 Q1374.23 1014.62 1380.04 1014.62 Z" fill="#000000" fill-rule="evenodd" fill-opacity="1" /><path clip-path="url(#clip540)" d="M1323.88 743.356 Q1327.23 744.073 1329.11 746.342 Q1331.01 748.61 1331.01 751.944 Q1331.01 757.059 1327.49 759.86 Q1323.97 762.661 1317.49 762.661 Q1315.31 762.661 1313 762.221 Q1310.71 761.805 1308.25 760.948 L1308.25 756.434 Q1310.2 757.569 1312.51 758.147 Q1314.83 758.726 1317.35 758.726 Q1321.75 758.726 1324.04 756.99 Q1326.36 755.254 1326.36 751.944 Q1326.36 748.888 1324.2 747.175 Q1322.07 745.439 1318.25 745.439 L1314.23 745.439 L1314.23 741.597 L1318.44 741.597 Q1321.89 741.597 1323.72 740.231 Q1325.54 738.842 1325.54 736.249 Q1325.54 733.587 1323.65 732.175 Q1321.77 730.74 1318.25 730.74 Q1316.33 730.74 1314.13 731.157 Q1311.93 731.573 1309.29 732.453 L1309.29 728.286 Q1311.96 727.546 1314.27 727.175 Q1316.61 726.805 1318.67 726.805 Q1323.99 726.805 1327.1 729.235 Q1330.2 731.643 1330.2 735.763 Q1330.2 738.634 1328.55 740.624 Q1326.91 742.592 1323.88 743.356 Z" fill="#000000" fill-rule="evenodd" fill-opacity="1" /><path clip-path="url(#clip540)" d="M1349.87 730.509 Q1346.26 730.509 1344.43 734.073 Q1342.63 737.615 1342.63 744.745 Q1342.63 751.851 1344.43 755.416 Q1346.26 758.958 1349.87 758.958 Q1353.51 758.958 1355.31 755.416 Q1357.14 751.851 1357.14 744.745 Q1357.14 737.615 1355.31 734.073 Q1353.51 730.509 1349.87 730.509 M1349.87 726.805 Q1355.68 726.805 1358.74 731.411 Q1361.82 735.995 1361.82 744.745 Q1361.82 753.471 1358.74 758.078 Q1355.68 762.661 1349.87 762.661 Q1344.06 762.661 1340.98 758.078 Q1337.93 753.471 1337.93 744.745 Q1337.93 735.995 1340.98 731.411 Q1344.06 726.805 1349.87 726.805 Z" fill="#000000" fill-rule="evenodd" fill-opacity="1" /><path clip-path="url(#clip540)" d="M1380.04 730.509 Q1376.42 730.509 1374.6 734.073 Q1372.79 737.615 1372.79 744.745 Q1372.79 751.851 1374.6 755.416 Q1376.42 758.958 1380.04 758.958 Q1383.67 758.958 1385.48 755.416 Q1387.3 751.851 1387.3 744.745 Q1387.3 737.615 1385.48 734.073 Q1383.67 730.509 1380.04 730.509 M1380.04 726.805 Q1385.85 726.805 1388.9 731.411 Q1391.98 735.995 1391.98 744.745 Q1391.98 753.471 1388.9 758.078 Q1385.85 762.661 1380.04 762.661 Q1374.23 762.661 1371.15 758.078 Q1368.09 753.471 1368.09 744.745 Q1368.09 735.995 1371.15 731.411 Q1374.23 726.805 1380.04 726.805 Z" fill="#000000" fill-rule="evenodd" fill-opacity="1" /><path clip-path="url(#clip540)" d="M1323.88 455.539 Q1327.23 456.257 1329.11 458.525 Q1331.01 460.794 1331.01 464.127 Q1331.01 469.243 1327.49 472.044 Q1323.97 474.845 1317.49 474.845 Q1315.31 474.845 1313 474.405 Q1310.71 473.988 1308.25 473.132 L1308.25 468.618 Q1310.2 469.752 1312.51 470.331 Q1314.83 470.91 1317.35 470.91 Q1321.75 470.91 1324.04 469.173 Q1326.36 467.437 1326.36 464.127 Q1326.36 461.072 1324.2 459.359 Q1322.07 457.623 1318.25 457.623 L1314.23 457.623 L1314.23 453.78 L1318.44 453.78 Q1321.89 453.78 1323.72 452.414 Q1325.54 451.025 1325.54 448.433 Q1325.54 445.771 1323.65 444.359 Q1321.77 442.924 1318.25 442.924 Q1316.33 442.924 1314.13 443.34 Q1311.93 443.757 1309.29 444.636 L1309.29 440.47 Q1311.96 439.729 1314.27 439.359 Q1316.61 438.988 1318.67 438.988 Q1323.99 438.988 1327.1 441.419 Q1330.2 443.826 1330.2 447.947 Q1330.2 450.817 1328.55 452.808 Q1326.91 454.775 1323.88 455.539 Z" fill="#000000" fill-rule="evenodd" fill-opacity="1" /><path clip-path="url(#clip540)" d="M1339.92 439.613 L1358.28 439.613 L1358.28 443.549 L1344.2 443.549 L1344.2 452.021 Q1345.22 451.673 1346.24 451.511 Q1347.26 451.326 1348.28 451.326 Q1354.06 451.326 1357.44 454.498 Q1360.82 457.669 1360.82 463.085 Q1360.82 468.664 1357.35 471.766 Q1353.88 474.845 1347.56 474.845 Q1345.38 474.845 1343.11 474.474 Q1340.87 474.104 1338.46 473.363 L1338.46 468.664 Q1340.54 469.798 1342.77 470.354 Q1344.99 470.91 1347.47 470.91 Q1351.47 470.91 1353.81 468.803 Q1356.15 466.697 1356.15 463.085 Q1356.15 459.474 1353.81 457.368 Q1351.47 455.261 1347.47 455.261 Q1345.59 455.261 1343.72 455.678 Q1341.86 456.095 1339.92 456.974 L1339.92 439.613 Z" fill="#000000" fill-rule="evenodd" fill-opacity="1" /><path clip-path="url(#clip540)" d="M1380.04 442.692 Q1376.42 442.692 1374.6 446.257 Q1372.79 449.799 1372.79 456.928 Q1372.79 464.035 1374.6 467.599 Q1376.42 471.141 1380.04 471.141 Q1383.67 471.141 1385.48 467.599 Q1387.3 464.035 1387.3 456.928 Q1387.3 449.799 1385.48 446.257 Q1383.67 442.692 1380.04 442.692 M1380.04 438.988 Q1385.85 438.988 1388.9 443.595 Q1391.98 448.178 1391.98 456.928 Q1391.98 465.655 1388.9 470.261 Q1385.85 474.845 1380.04 474.845 Q1374.23 474.845 1371.15 470.261 Q1368.09 465.655 1368.09 456.928 Q1368.09 448.178 1371.15 443.595 Q1374.23 438.988 1380.04 438.988 Z" fill="#000000" fill-rule="evenodd" fill-opacity="1" /><path clip-path="url(#clip540)" d="M1322.56 155.871 L1310.75 174.32 L1322.56 174.32 L1322.56 155.871 M1321.33 151.797 L1327.21 151.797 L1327.21 174.32 L1332.14 174.32 L1332.14 178.209 L1327.21 178.209 L1327.21 186.357 L1322.56 186.357 L1322.56 178.209 L1306.96 178.209 L1306.96 173.695 L1321.33 151.797 Z" fill="#000000" fill-rule="evenodd" fill-opacity="1" /><path clip-path="url(#clip540)" d="M1349.87 154.876 Q1346.26 154.876 1344.43 158.44 Q1342.63 161.982 1342.63 169.112 Q1342.63 176.218 1344.43 179.783 Q1346.26 183.324 1349.87 183.324 Q1353.51 183.324 1355.31 179.783 Q1357.14 176.218 1357.14 169.112 Q1357.14 161.982 1355.31 158.44 Q1353.51 154.876 1349.87 154.876 M1349.87 151.172 Q1355.68 151.172 1358.74 155.778 Q1361.82 160.362 1361.82 169.112 Q1361.82 177.838 1358.74 182.445 Q1355.68 187.028 1349.87 187.028 Q1344.06 187.028 1340.98 182.445 Q1337.93 177.838 1337.93 169.112 Q1337.93 160.362 1340.98 155.778 Q1344.06 151.172 1349.87 151.172 Z" fill="#000000" fill-rule="evenodd" fill-opacity="1" /><path clip-path="url(#clip540)" d="M1380.04 154.876 Q1376.42 154.876 1374.6 158.44 Q1372.79 161.982 1372.79 169.112 Q1372.79 176.218 1374.6 179.783 Q1376.42 183.324 1380.04 183.324 Q1383.67 183.324 1385.48 179.783 Q1387.3 176.218 1387.3 169.112 Q1387.3 161.982 1385.48 158.44 Q1383.67 154.876 1380.04 154.876 M1380.04 151.172 Q1385.85 151.172 1388.9 155.778 Q1391.98 160.362 1391.98 169.112 Q1391.98 177.838 1388.9 182.445 Q1385.85 187.028 1380.04 187.028 Q1374.23 187.028 1371.15 182.445 Q1368.09 177.838 1368.09 169.112 Q1368.09 160.362 1371.15 155.778 Q1374.23 151.172 1380.04 151.172 Z" fill="#000000" fill-rule="evenodd" fill-opacity="1" /><path clip-path="url(#clip540)" d="M1215.51 1041.59 L1239.16 1050.31 L1239.16 1032.84 L1215.51 1041.59 M1209.18 1045.22 L1209.18 1037.93 L1256.7 1019.82 L1256.7 1026.51 L1244.51 1030.84 L1244.51 1052.26 L1256.7 1056.58 L1256.7 1063.36 L1209.18 1045.22 Z" fill="#000000" fill-rule="evenodd" fill-opacity="1" /><path clip-path="url(#clip540)" d="M1221.05 1021.16 L1221.05 1014.95 L1250.97 1003.81 L1221.05 992.673 L1221.05 986.466 L1256.7 999.834 L1256.7 1007.79 L1221.05 1021.16 Z" fill="#000000" fill-rule="evenodd" fill-opacity="1" /><path clip-path="url(#clip540)" d="M1237.41 947.89 L1240.28 947.89 L1240.28 974.817 Q1246.32 974.435 1249.51 971.189 Q1252.66 967.91 1252.66 962.086 Q1252.66 958.712 1251.83 955.561 Q1251 952.378 1249.35 949.259 L1254.89 949.259 Q1256.22 952.41 1256.92 955.72 Q1257.62 959.03 1257.62 962.436 Q1257.62 970.966 1252.66 975.963 Q1247.69 980.928 1239.23 980.928 Q1230.47 980.928 1225.35 976.218 Q1220.19 971.475 1220.19 963.454 Q1220.19 956.261 1224.84 952.092 Q1229.46 947.89 1237.41 947.89 M1235.69 953.747 Q1230.89 953.81 1228.02 956.452 Q1225.16 959.062 1225.16 963.391 Q1225.16 968.292 1227.93 971.252 Q1230.7 974.181 1235.73 974.626 L1235.69 953.747 Z" fill="#000000" fill-rule="evenodd" fill-opacity="1" /><path clip-path="url(#clip540)" d="M1226.53 917.621 Q1225.95 918.608 1225.7 919.786 Q1225.41 920.931 1225.41 922.332 Q1225.41 927.297 1228.66 929.971 Q1231.87 932.613 1237.92 932.613 L1256.7 932.613 L1256.7 938.501 L1221.05 938.501 L1221.05 932.613 L1226.59 932.613 Q1223.34 930.766 1221.79 927.806 Q1220.19 924.846 1220.19 920.613 Q1220.19 920.008 1220.29 919.276 Q1220.35 918.544 1220.51 917.653 L1226.53 917.621 Z" fill="#000000" fill-rule="evenodd" fill-opacity="1" /><path clip-path="url(#clip540)" d="M1238.78 895.278 Q1238.78 902.375 1240.4 905.113 Q1242.03 907.85 1245.94 907.85 Q1249.06 907.85 1250.91 905.813 Q1252.72 903.744 1252.72 900.211 Q1252.72 895.341 1249.28 892.413 Q1245.82 889.453 1240.09 889.453 L1238.78 889.453 L1238.78 895.278 M1236.36 883.597 L1256.7 883.597 L1256.7 889.453 L1251.29 889.453 Q1254.54 891.458 1256.1 894.45 Q1257.62 897.442 1257.62 901.771 Q1257.62 907.245 1254.57 910.492 Q1251.48 913.706 1246.32 913.706 Q1240.31 913.706 1237.25 909.696 Q1234.2 905.654 1234.2 897.665 L1234.2 889.453 L1233.63 889.453 Q1229.58 889.453 1227.39 892.127 Q1225.16 894.768 1225.16 899.575 Q1225.16 902.63 1225.89 905.526 Q1226.62 908.423 1228.09 911.096 L1222.68 911.096 Q1221.43 907.882 1220.83 904.858 Q1220.19 901.834 1220.19 898.97 Q1220.19 891.235 1224.2 887.416 Q1228.21 883.597 1236.36 883.597 Z" fill="#000000" fill-rule="evenodd" fill-opacity="1" /><path clip-path="url(#clip540)" d="M1238.46 848.076 Q1232.1 848.076 1228.6 850.718 Q1225.1 853.328 1225.1 858.07 Q1225.1 862.781 1228.6 865.422 Q1232.1 868.032 1238.46 868.032 Q1244.8 868.032 1248.3 865.422 Q1251.8 862.781 1251.8 858.07 Q1251.8 853.328 1248.3 850.718 Q1244.8 848.076 1238.46 848.076 M1252.28 842.219 Q1261.38 842.219 1265.8 846.262 Q1270.26 850.304 1270.26 858.643 Q1270.26 861.73 1269.78 864.468 Q1269.34 867.205 1268.38 869.783 L1262.68 869.783 Q1264.09 867.205 1264.75 864.69 Q1265.42 862.176 1265.42 859.566 Q1265.42 853.805 1262.4 850.941 Q1259.41 848.076 1253.33 848.076 L1250.43 848.076 Q1253.58 849.89 1255.14 852.723 Q1256.7 855.556 1256.7 859.502 Q1256.7 866.059 1251.7 870.069 Q1246.71 874.08 1238.46 874.08 Q1230.19 874.08 1225.19 870.069 Q1220.19 866.059 1220.19 859.502 Q1220.19 855.556 1221.75 852.723 Q1223.31 849.89 1226.46 848.076 L1221.05 848.076 L1221.05 842.219 L1252.28 842.219 Z" fill="#000000" fill-rule="evenodd" fill-opacity="1" /><path clip-path="url(#clip540)" d="M1237.41 799.665 L1240.28 799.665 L1240.28 826.592 Q1246.32 826.21 1249.51 822.963 Q1252.66 819.685 1252.66 813.86 Q1252.66 810.486 1251.83 807.335 Q1251 804.153 1249.35 801.033 L1254.89 801.033 Q1256.22 804.184 1256.92 807.495 Q1257.62 810.805 1257.62 814.21 Q1257.62 822.74 1252.66 827.738 Q1247.69 832.703 1239.23 832.703 Q1230.47 832.703 1225.35 827.992 Q1220.19 823.25 1220.19 815.229 Q1220.19 808.036 1224.84 803.866 Q1229.46 799.665 1237.41 799.665 M1235.69 805.521 Q1230.89 805.585 1228.02 808.227 Q1225.16 810.837 1225.16 815.165 Q1225.16 820.067 1227.93 823.027 Q1230.7 825.955 1235.73 826.401 L1235.69 805.521 Z" fill="#000000" fill-rule="evenodd" fill-opacity="1" /><path clip-path="url(#clip540)" d="M1209.18 775.666 L1209.18 735.467 L1214.59 735.467 L1214.59 752.336 L1256.7 752.336 L1256.7 758.797 L1214.59 758.797 L1214.59 775.666 L1209.18 775.666 Z" fill="#000000" fill-rule="evenodd" fill-opacity="1" /><path clip-path="url(#clip540)" d="M1221.05 731.52 L1221.05 725.663 L1256.7 725.663 L1256.7 731.52 L1221.05 731.52 M1207.18 731.52 L1207.18 725.663 L1214.59 725.663 L1214.59 731.52 L1207.18 731.52 Z" fill="#000000" fill-rule="evenodd" fill-opacity="1" /><path clip-path="url(#clip540)" d="M1227.9 685.655 Q1223.95 683.459 1222.07 680.403 Q1220.19 677.348 1220.19 673.21 Q1220.19 667.64 1224.11 664.616 Q1227.99 661.593 1235.18 661.593 L1256.7 661.593 L1256.7 667.481 L1235.38 667.481 Q1230.25 667.481 1227.77 669.295 Q1225.29 671.109 1225.29 674.833 Q1225.29 679.385 1228.31 682.026 Q1231.33 684.668 1236.55 684.668 L1256.7 684.668 L1256.7 690.557 L1235.38 690.557 Q1230.22 690.557 1227.77 692.371 Q1225.29 694.185 1225.29 697.973 Q1225.29 702.46 1228.34 705.102 Q1231.37 707.744 1236.55 707.744 L1256.7 707.744 L1256.7 713.632 L1221.05 713.632 L1221.05 707.744 L1226.59 707.744 Q1223.31 705.739 1221.75 702.938 Q1220.19 700.137 1220.19 696.286 Q1220.19 692.403 1222.17 689.697 Q1224.14 686.96 1227.9 685.655 Z" fill="#000000" fill-rule="evenodd" fill-opacity="1" /><path clip-path="url(#clip540)" d="M1237.41 619.42 L1240.28 619.42 L1240.28 646.347 Q1246.32 645.965 1249.51 642.718 Q1252.66 639.44 1252.66 633.615 Q1252.66 630.241 1251.83 627.09 Q1251 623.908 1249.35 620.788 L1254.89 620.788 Q1256.22 623.939 1256.92 627.25 Q1257.62 630.56 1257.62 633.965 Q1257.62 642.495 1252.66 647.493 Q1247.69 652.458 1239.23 652.458 Q1230.47 652.458 1225.35 647.747 Q1220.19 643.005 1220.19 634.984 Q1220.19 627.791 1224.84 623.621 Q1229.46 619.42 1237.41 619.42 M1235.69 625.276 Q1230.89 625.34 1228.02 627.982 Q1225.16 630.592 1225.16 634.92 Q1225.16 639.822 1227.93 642.782 Q1230.7 645.71 1235.73 646.156 L1235.69 625.276 Z" fill="#000000" fill-rule="evenodd" fill-opacity="1" /><path clip-path="url(#clip540)" d="M1210.74 560.346 L1217.01 560.346 Q1215.26 564.006 1214.4 567.253 Q1213.54 570.499 1213.54 573.523 Q1213.54 578.775 1215.58 581.639 Q1217.62 584.472 1221.37 584.472 Q1224.52 584.472 1226.15 582.594 Q1227.74 580.684 1228.72 575.401 L1229.52 571.518 Q1230.89 564.325 1234.36 560.919 Q1237.79 557.481 1243.59 557.481 Q1250.49 557.481 1254.06 562.128 Q1257.62 566.744 1257.62 575.687 Q1257.62 579.061 1256.86 582.881 Q1256.1 586.668 1254.6 590.742 L1247.98 590.742 Q1250.18 586.827 1251.29 583.072 Q1252.4 579.316 1252.4 575.687 Q1252.4 570.181 1250.24 567.189 Q1248.08 564.197 1244.07 564.197 Q1240.56 564.197 1238.59 566.362 Q1236.62 568.494 1235.63 573.396 L1234.87 577.311 Q1233.43 584.504 1230.38 587.719 Q1227.32 590.933 1221.88 590.933 Q1215.58 590.933 1211.95 586.509 Q1208.32 582.053 1208.32 574.255 Q1208.32 570.913 1208.93 567.444 Q1209.53 563.974 1210.74 560.346 Z" fill="#000000" fill-rule="evenodd" fill-opacity="1" /><path clip-path="url(#clip540)" d="M1251.35 542.045 L1270.26 542.045 L1270.26 547.933 L1221.05 547.933 L1221.05 542.045 L1226.46 542.045 Q1223.28 540.199 1221.75 537.398 Q1220.19 534.565 1220.19 530.65 Q1220.19 524.157 1225.35 520.115 Q1230.51 516.041 1238.91 516.041 Q1247.31 516.041 1252.47 520.115 Q1257.62 524.157 1257.62 530.65 Q1257.62 534.565 1256.1 537.398 Q1254.54 540.199 1251.35 542.045 M1238.91 522.12 Q1232.45 522.12 1228.79 524.794 Q1225.1 527.435 1225.1 532.082 Q1225.1 536.729 1228.79 539.403 Q1232.45 542.045 1238.91 542.045 Q1245.37 542.045 1249.06 539.403 Q1252.72 536.729 1252.72 532.082 Q1252.72 527.435 1249.06 524.794 Q1245.37 522.12 1238.91 522.12 Z" fill="#000000" fill-rule="evenodd" fill-opacity="1" /><path clip-path="url(#clip540)" d="M1237.41 475.841 L1240.28 475.841 L1240.28 502.768 Q1246.32 502.386 1249.51 499.14 Q1252.66 495.861 1252.66 490.037 Q1252.66 486.663 1251.83 483.512 Q1251 480.329 1249.35 477.21 L1254.89 477.21 Q1256.22 480.361 1256.92 483.671 Q1257.62 486.981 1257.62 490.387 Q1257.62 498.917 1252.66 503.914 Q1247.69 508.879 1239.23 508.879 Q1230.47 508.879 1225.35 504.169 Q1220.19 499.426 1220.19 491.405 Q1220.19 484.212 1224.84 480.043 Q1229.46 475.841 1237.41 475.841 M1235.69 481.698 Q1230.89 481.761 1228.02 484.403 Q1225.16 487.013 1225.16 491.342 Q1225.16 496.243 1227.93 499.203 Q1230.7 502.132 1235.73 502.577 L1235.69 481.698 Z" fill="#000000" fill-rule="evenodd" fill-opacity="1" /><path clip-path="url(#clip540)" d="M1235.18 436.597 L1256.7 436.597 L1256.7 442.453 L1235.38 442.453 Q1230.32 442.453 1227.8 444.426 Q1225.29 446.4 1225.29 450.347 Q1225.29 455.089 1228.31 457.826 Q1231.33 460.564 1236.55 460.564 L1256.7 460.564 L1256.7 466.452 L1221.05 466.452 L1221.05 460.564 L1226.59 460.564 Q1223.38 458.463 1221.79 455.63 Q1220.19 452.766 1220.19 449.042 Q1220.19 442.899 1224.01 439.748 Q1227.8 436.597 1235.18 436.597 Z" fill="#000000" fill-rule="evenodd" fill-opacity="1" /><path clip-path="url(#clip540)" d="M1210.93 419.123 L1221.05 419.123 L1221.05 407.06 L1225.6 407.06 L1225.6 419.123 L1244.96 419.123 Q1249.32 419.123 1250.56 417.945 Q1251.8 416.736 1251.8 413.075 L1251.8 407.06 L1256.7 407.06 L1256.7 413.075 Q1256.7 419.855 1254.19 422.433 Q1251.64 425.011 1244.96 425.011 L1225.6 425.011 L1225.6 429.308 L1221.05 429.308 L1221.05 425.011 L1210.93 425.011 L1210.93 419.123 Z" fill="#000000" fill-rule="evenodd" fill-opacity="1" /><polyline clip-path="url(#clip543)" style="stroke:#009af9; stroke-linecap:round; stroke-linejoin:round; stroke-width:4; stroke-opacity:1; fill:none" points="1454.15,86.1857 1462.88,302.048 1471.6,470.709 1480.33,1109.09 1489.05,1185.07 1497.77,1257.02 1506.5,1303.07 1515.22,1336.46 1523.95,1336.46 1532.67,1336.46 1541.4,1336.46 1550.12,1336.46 1558.84,1364.09 1567.57,1364.09 1576.29,1364.09 1585.02,1364.09 1593.74,1364.09 1602.47,1364.09 1611.19,1364.09 1619.91,1364.09 1628.64,1364.09 1637.36,1364.09 1646.09,1364.09 1654.81,1364.09 1663.54,1364.09 1672.26,1364.09 1680.98,1364.09 1689.71,1364.09 1698.43,1364.09 1707.16,1364.09 1715.88,1364.09 1724.61,1364.09 1733.33,1364.09 1742.05,1364.09 1750.78,1364.09 1759.5,1376.18 1768.23,1376.18 1776.95,1376.18 1785.68,1376.18 1794.4,1381.36 1803.12,1381.36 1811.85,1381.36 1820.57,1381.36 1829.3,1381.36 1838.02,1381.36 1846.75,1381.36 1855.47,1381.36 1864.19,1381.36 1872.92,1381.36 1881.64,1381.36 1890.37,1381.36 1899.09,1381.36 1907.82,1381.36 1916.54,1381.36 1925.26,1381.36 1933.99,1381.36 1942.71,1381.36 1951.44,1381.36 1960.16,1384.24 1968.89,1384.24 1977.61,1384.24 1986.34,1384.24 1995.06,1384.24 2003.78,1384.24 2012.51,1384.24 2021.23,1384.24 2029.96,1384.24 2038.68,1384.24 2047.41,1384.24 2056.13,1384.24 2064.85,1384.24 2073.58,1384.24 2082.3,1384.24 2091.03,1384.24 2099.75,1384.24 2108.48,1384.24 2117.2,1384.24 2125.92,1384.24 2134.65,1384.24 2143.37,1384.24 2152.1,1384.24 2160.82,1384.24 2169.55,1384.24 2178.27,1384.24 2186.99,1384.24 2195.72,1384.24 2204.44,1384.24 2213.17,1384.24 2221.89,1384.24 2230.62,1384.24 2239.34,1384.24 2248.06,1384.24 2256.79,1384.24 2265.51,1384.24 2274.24,1384.24 2282.96,1384.24 2291.69,1384.24 2300.41,1384.24 2309.13,1384.24 2317.86,1384.24 2326.58,1384.24 "/>
<path clip-path="url(#clip540)" d="M2090.91 196.789 L2321.93 196.789 L2321.93 93.1086 L2090.91 93.1086  Z" fill="#ffffff" fill-rule="evenodd" fill-opacity="1"/>
<polyline clip-path="url(#clip540)" style="stroke:#000000; stroke-linecap:round; stroke-linejoin:round; stroke-width:4; stroke-opacity:1; fill:none" points="2090.91,196.789 2321.93,196.789 2321.93,93.1086 2090.91,93.1086 2090.91,196.789 "/>
<polyline clip-path="url(#clip540)" style="stroke:#009af9; stroke-linecap:round; stroke-linejoin:round; stroke-width:4; stroke-opacity:1; fill:none" points="2101.19,144.949 2162.84,144.949 "/>
<path clip-path="url(#clip540)" d="M2173.11 127.669 L2202.35 127.669 L2202.35 131.604 L2190.08 131.604 L2190.08 162.229 L2185.38 162.229 L2185.38 131.604 L2173.11 131.604 L2173.11 127.669 Z" fill="#000000" fill-rule="evenodd" fill-opacity="1" /><path clip-path="url(#clip540)" d="M2205.22 136.303 L2209.48 136.303 L2209.48 162.229 L2205.22 162.229 L2205.22 136.303 M2205.22 126.21 L2209.48 126.21 L2209.48 131.604 L2205.22 131.604 L2205.22 126.21 Z" fill="#000000" fill-rule="evenodd" fill-opacity="1" /><path clip-path="url(#clip540)" d="M2238.58 141.28 Q2240.17 138.409 2242.4 137.044 Q2244.62 135.678 2247.63 135.678 Q2251.68 135.678 2253.88 138.525 Q2256.08 141.349 2256.08 146.581 L2256.08 162.229 L2251.79 162.229 L2251.79 146.719 Q2251.79 142.993 2250.47 141.187 Q2249.16 139.382 2246.45 139.382 Q2243.14 139.382 2241.22 141.581 Q2239.29 143.78 2239.29 147.576 L2239.29 162.229 L2235.01 162.229 L2235.01 146.719 Q2235.01 142.969 2233.69 141.187 Q2232.37 139.382 2229.62 139.382 Q2226.35 139.382 2224.43 141.604 Q2222.51 143.803 2222.51 147.576 L2222.51 162.229 L2218.23 162.229 L2218.23 136.303 L2222.51 136.303 L2222.51 140.331 Q2223.97 137.946 2226.01 136.812 Q2228.04 135.678 2230.84 135.678 Q2233.67 135.678 2235.64 137.113 Q2237.63 138.548 2238.58 141.28 Z" fill="#000000" fill-rule="evenodd" fill-opacity="1" /><path clip-path="url(#clip540)" d="M2286.75 148.201 L2286.75 150.284 L2267.16 150.284 Q2267.44 154.682 2269.8 156.997 Q2272.19 159.289 2276.42 159.289 Q2278.88 159.289 2281.17 158.687 Q2283.48 158.085 2285.75 156.881 L2285.75 160.909 Q2283.46 161.881 2281.05 162.391 Q2278.65 162.9 2276.17 162.9 Q2269.97 162.9 2266.33 159.289 Q2262.72 155.678 2262.72 149.52 Q2262.72 143.155 2266.15 139.428 Q2269.59 135.678 2275.43 135.678 Q2280.66 135.678 2283.69 139.057 Q2286.75 142.414 2286.75 148.201 M2282.49 146.951 Q2282.44 143.456 2280.52 141.372 Q2278.62 139.289 2275.47 139.289 Q2271.91 139.289 2269.76 141.303 Q2267.63 143.317 2267.3 146.974 L2282.49 146.951 Z" fill="#000000" fill-rule="evenodd" fill-opacity="1" /><path clip-path="url(#clip540)" d="M2310.27 137.067 L2310.27 141.094 Q2308.46 140.169 2306.52 139.706 Q2304.57 139.243 2302.49 139.243 Q2299.32 139.243 2297.72 140.215 Q2296.15 141.187 2296.15 143.131 Q2296.15 144.613 2297.28 145.469 Q2298.41 146.303 2301.84 147.067 L2303.3 147.391 Q2307.84 148.363 2309.73 150.145 Q2311.65 151.905 2311.65 155.076 Q2311.65 158.687 2308.78 160.793 Q2305.94 162.9 2300.94 162.9 Q2298.85 162.9 2296.59 162.483 Q2294.34 162.09 2291.84 161.28 L2291.84 156.881 Q2294.2 158.108 2296.49 158.733 Q2298.78 159.335 2301.03 159.335 Q2304.04 159.335 2305.66 158.317 Q2307.28 157.275 2307.28 155.4 Q2307.28 153.664 2306.1 152.738 Q2304.94 151.812 2300.98 150.956 L2299.5 150.608 Q2295.54 149.775 2293.78 148.062 Q2292.03 146.326 2292.03 143.317 Q2292.03 139.659 2294.62 137.669 Q2297.21 135.678 2301.98 135.678 Q2304.34 135.678 2306.42 136.025 Q2308.51 136.372 2310.27 137.067 Z" fill="#000000" fill-rule="evenodd" fill-opacity="1" /></svg>
